<svg width="40" height="40" viewBox="0 0 40 40" fill="none" xmlns="http://www.w3.org/2000/svg">
<rect width="40" height="40" rx="20" fill="#CC0000"/>
<mask id="mask0_5763_6304" style="mask-type:alpha" maskUnits="userSpaceOnUse" x="4" y="4" width="32" height="32">
<rect x="4" y="4" width="32" height="32" fill="#D9D9D9"/>
</mask>
<g mask="url(#mask0_5763_6304)">
<path d="M14.4318 21.333L20.9651 27.8663C21.2318 28.133 21.3595 28.4441 21.3484 28.7997C21.3373 29.1552 21.1984 29.4663 20.9318 29.733C20.6651 29.9774 20.354 30.1052 19.9984 30.1163C19.6429 30.1274 19.3318 29.9997 19.0651 29.733L10.2651 20.933C10.1318 20.7997 10.0373 20.6552 9.98177 20.4997C9.92622 20.3441 9.89844 20.1774 9.89844 19.9997C9.89844 19.8219 9.92622 19.6552 9.98177 19.4997C10.0373 19.3441 10.1318 19.1997 10.2651 19.0663L19.0651 10.2663C19.3095 10.0219 19.6151 9.89966 19.9818 9.89966C20.3484 9.89966 20.6651 10.0219 20.9318 10.2663C21.1984 10.533 21.3318 10.8497 21.3318 11.2163C21.3318 11.583 21.1984 11.8997 20.9318 12.1663L14.4318 18.6663H29.3318C29.7095 18.6663 30.0262 18.7941 30.2818 19.0497C30.5373 19.3052 30.6651 19.6219 30.6651 19.9997C30.6651 20.3774 30.5373 20.6941 30.2818 20.9497C30.0262 21.2052 29.7095 21.333 29.3318 21.333H14.4318Z" fill="white"/>
</g>
</svg>
