<svg width="40" height="40" viewBox="0 0 40 40" fill="none" xmlns="http://www.w3.org/2000/svg">
<rect x="40" y="40" width="40" height="40" rx="20" transform="rotate(-180 40 40)" fill="#CC0000"/>
<mask id="mask0_5763_6322" style="mask-type:alpha" maskUnits="userSpaceOnUse" x="4" y="4" width="32" height="32">
<rect x="36" y="36" width="32" height="32" transform="rotate(-180 36 36)" fill="#D9D9D9"/>
</mask>
<g mask="url(#mask0_5763_6322)">
<path d="M25.5682 18.667L19.0349 12.1337C18.7682 11.867 18.6405 11.5559 18.6516 11.2003C18.6627 10.8448 18.8016 10.5337 19.0682 10.267C19.3349 10.0226 19.646 9.89479 20.0016 9.88368C20.3571 9.87256 20.6682 10.0003 20.9349 10.267L29.7349 19.067C29.8682 19.2003 29.9627 19.3448 30.0182 19.5003C30.0738 19.6559 30.1016 19.8226 30.1016 20.0003C30.1016 20.1781 30.0738 20.3448 30.0182 20.5003C29.9627 20.6559 29.8682 20.8003 29.7349 20.9337L20.9349 29.7337C20.6905 29.9781 20.3849 30.1003 20.0182 30.1003C19.6516 30.1003 19.3349 29.9781 19.0682 29.7337C18.8016 29.467 18.6682 29.1503 18.6682 28.7837C18.6682 28.417 18.8016 28.1003 19.0682 27.8337L25.5682 21.3337H10.6682C10.2905 21.3337 9.97378 21.2059 9.71823 20.9503C9.46267 20.6948 9.3349 20.3781 9.3349 20.0003C9.3349 19.6226 9.46267 19.3059 9.71823 19.0503C9.97378 18.7948 10.2905 18.667 10.6682 18.667H25.5682Z" fill="white"/>
</g>
</svg>
