<svg width="40" height="40" viewBox="0 0 40 40" fill="none" xmlns="http://www.w3.org/2000/svg">
<rect x="2" y="2" width="36" height="36" rx="18" fill="white"/>
<rect x="2" y="2" width="36" height="36" rx="18" stroke="#F6F4F2" stroke-width="4"/>
<path d="M22.991 24.7837C22.467 25.1347 21.0932 25.8515 21.93 26.7483C22.3387 27.1864 22.794 27.4997 23.3664 27.4997H24.9994H26.6324C27.2047 27.4997 27.66 27.1864 28.0688 26.7483C28.9055 25.8515 27.5317 25.1347 27.0077 24.7837C25.779 23.9607 24.2198 23.9607 22.991 24.7837Z" stroke="#CC0000" stroke-width="1.25"/>
<path d="M26.6673 20.4165C26.6673 21.337 25.9212 22.0832 25.0007 22.0832C24.0802 22.0832 23.334 21.337 23.334 20.4165C23.334 19.496 24.0802 18.7498 25.0007 18.7498C25.9212 18.7498 26.6673 19.496 26.6673 20.4165Z" stroke="#CC0000" stroke-width="1.25"/>
<path d="M18.334 14.9998H22.5007M18.334 12.4998H25.0007" stroke="#CC0000" stroke-width="1.25" stroke-linecap="round" stroke-linejoin="round"/>
<path d="M15.8327 17.9165V21.6665C15.8327 22.4522 15.8327 22.845 15.5886 23.0891C15.3445 23.3332 14.9517 23.3332 14.166 23.3332H13.3327C12.547 23.3332 12.1542 23.3332 11.9101 23.0891C11.666 22.845 11.666 22.4522 11.666 21.6665V19.5832C11.666 18.7975 11.666 18.4047 11.9101 18.1605C12.1542 17.9165 12.547 17.9165 13.3327 17.9165H15.8327ZM15.8327 17.9165H19.9993" stroke="#CC0000" stroke-width="1.25" stroke-linecap="round" stroke-linejoin="round"/>
<path d="M15.4173 14.1665C15.4173 15.0869 14.6711 15.8331 13.7507 15.8331C12.8302 15.8331 12.084 15.0869 12.084 14.1665C12.084 13.246 12.8302 12.4998 13.7507 12.4998C14.6711 12.4998 15.4173 13.246 15.4173 14.1665Z" stroke="#CC0000" stroke-width="1.25"/>
</svg>