<svg width="40" height="40" viewBox="0 0 40 40" fill="none" xmlns="http://www.w3.org/2000/svg">
<rect x="2" y="2" width="36" height="36" rx="18" fill="#CC0000"/>
<rect x="2" y="2" width="36" height="36" rx="18" stroke="#F6F4F2" stroke-width="4"/>
<path d="M20 28.3333C19.3182 28.3333 18.6668 28.0582 17.3641 27.5079C14.1214 26.1381 12.5 25.4532 12.5 24.3011C12.5 23.9785 12.5 18.3871 12.5 15.8333M20 28.3333C20.6818 28.3333 21.3332 28.0582 22.6359 27.5079C25.8787 26.1381 27.5 25.4532 27.5 24.3011V15.8333M20 28.3333V19.4623" stroke="white" stroke-width="1.25" stroke-linecap="round" stroke-linejoin="round"/>
<path d="M16.9383 18.0761L14.5039 16.8982C13.168 16.2517 12.5 15.9285 12.5 15.4167C12.5 14.9048 13.168 14.5816 14.5039 13.9351L16.9383 12.7572C18.4407 12.0302 19.1919 11.6667 20 11.6667C20.8081 11.6667 21.5593 12.0302 23.0617 12.7572L25.4961 13.9351C26.832 14.5816 27.5 14.9048 27.5 15.4167C27.5 15.9285 26.832 16.2517 25.4961 16.8982L23.0617 18.0761C21.5593 18.8032 20.8081 19.1667 20 19.1667C19.1919 19.1667 18.4407 18.8032 16.9383 18.0761Z" stroke="white" stroke-width="1.25" stroke-linecap="round" stroke-linejoin="round"/>
<path d="M15 20L16.6667 20.8333" stroke="white" stroke-width="1.25" stroke-linecap="round" stroke-linejoin="round"/>
<path d="M24.1673 13.3333L15.834 17.5" stroke="white" stroke-width="1.25" stroke-linecap="round" stroke-linejoin="round"/>
</svg>
