<svg width="40" height="40" viewBox="0 0 40 40" fill="none" xmlns="http://www.w3.org/2000/svg">
    <rect x="2" y="2" width="36" height="36" rx="18" fill="white"/>
    <rect x="2" y="2" width="36" height="36" rx="18" stroke="#F6F4F2" stroke-width="4"/>
    <path d="M26.2507 24.5833C26.2507 25.7339 25.3179 26.6667 24.1673 26.6667C23.0167 26.6667 22.084 25.7339 22.084 24.5833C22.084 23.4327 23.0167 22.5 24.1673 22.5C25.3179 22.5 26.2507 23.4327 26.2507 24.5833Z" stroke="#CC0000" stroke-width="1.25"/>
    <path d="M17.9167 24.5833C17.9167 25.7339 16.9839 26.6667 15.8333 26.6667C14.6827 26.6667 13.75 25.7339 13.75 24.5833C13.75 23.4327 14.6827 22.5 15.8333 22.5C16.9839 22.5 17.9167 23.4327 17.9167 24.5833Z" stroke="#CC0000" stroke-width="1.25"/>
    <path d="M22.0827 24.5833H17.916M26.2493 24.5833H26.8853C27.0686 24.5833 27.1603 24.5833 27.2373 24.5738C27.8051 24.503 28.2523 24.0557 28.3231 23.4879C28.3327 23.4109 28.3327 23.3193 28.3327 23.136V20.8333C28.3327 17.8418 25.9076 15.4167 22.916 15.4167M11.666 13.3333H19.9993C21.1778 13.3333 21.7671 13.3333 22.1333 13.6995C22.4993 14.0656 22.4993 14.6548 22.4993 15.8333V22.9167M11.666 20.625V22.5C11.666 23.2788 11.666 23.6683 11.8335 23.9583C11.9432 24.1483 12.101 24.3062 12.291 24.4158C12.5811 24.5833 12.9705 24.5833 13.7493 24.5833" stroke="#CC0000" stroke-width="1.25" stroke-linecap="round" stroke-linejoin="round"/>
    <path d="M11.666 15.8333H16.666M11.666 18.3333H14.9993" stroke="#CC0000" stroke-width="1.25" stroke-linecap="round" stroke-linejoin="round"/>
    </svg>
    