<svg width="256" height="256" viewBox="0 0 256 256" fill="none"
	xmlns="http://www.w3.org/2000/svg">
	<circle cx="128" cy="128" r="128" fill="#CC0000"/>
	<g clip-path="url(#clip0_173_112)">
		<path d="M63.1391 143.274H41.8594V117.807H63.1391V122.901H48.7611V127.492H60.071V133.227H48.7611V138.182H63.1391V143.274Z" fill="white"/>
		<path d="M63.1311 117.807H70.4166L76.7437 130.176L83.0708 117.807H90.3563L80.1957 136.542V143.272H73.2918V136.542L63.1311 117.807Z" fill="white"/>
		<path d="M113.165 143.274H91.885V117.807H113.165V122.901H98.7867V127.492H112.989V133.227H98.7867V138.182H113.165V143.274Z" fill="white"/>
		<path d="M121.016 143.274H113.54L123.7 117.807H131.37L141.53 143.274H134.054L132.328 139.336H122.742L121.016 143.274ZM124.466 133.692H130.6L127.532 125.449L124.466 133.692Z" fill="white"/>
		<path d="M165.701 143.836C164.817 143.836 154.078 143.836 149.067 143.836C146.563 143.836 144.867 143.081 143.692 141.964C142.517 140.849 141.927 139.102 141.927 136.726V125.084C141.927 122.537 142.528 120.695 143.73 119.555C144.957 118.39 146.912 117.809 149.597 117.809H165.701L165.649 122.904H151.13C149.597 122.904 148.829 123.63 148.829 125.086V136.728C148.829 137.286 148.996 137.734 149.326 138.075C149.684 138.39 150.156 138.549 150.746 138.549C153.685 138.549 156.37 138.489 158.797 138.367V133.092H153.812V127.202H165.698V143.836H165.701Z" fill="white"/>
		<path d="M176.444 138.18H190.438V143.272H169.542V117.807H176.444V138.18Z" fill="white"/>
		<path d="M214.412 143.274H193.132V117.807H214.412V122.901H200.034V127.813H211.343V132.906H200.034V138.18H214.412V143.274Z" fill="white"/>
		<rect x="41.4312" y="109.752" width="173.025" height="4.28812" fill="white"/>
		<rect x="41.4312" y="148.488" width="173.025" height="4.28812" fill="white"/>
		<path fill-rule="evenodd" clip-rule="evenodd" d="M189.795 151.785C175.473 177.692 154.2 196.619 131.202 206.248C130.175 206.677 129.073 206.9 128.008 206.9C126.942 206.9 125.84 206.677 124.813 206.248C101.816 196.619 80.5427 177.694 66.2204 151.785H61.6921C76.4132 179.405 98.8251 199.681 123.276 209.921C124.777 210.549 126.402 210.882 128.008 210.882C129.614 210.882 131.239 210.549 132.74 209.921C157.193 199.683 179.602 179.407 194.324 151.785H189.795Z" fill="white"/>
		<path fill-rule="evenodd" clip-rule="evenodd" d="M51.2249 109.859C48.6863 95.6486 48.6434 81.6372 50.899 68.6035C59.6167 70.9298 69.6488 71.8239 80.1825 70.9534H80.1847H80.1868C100.823 69.2253 118.964 61.0693 128.012 49.6543C137.06 61.0693 155.201 69.2253 175.838 70.9534H175.842C186.376 71.826 196.408 70.9319 205.125 68.6035C207.381 81.6394 207.338 95.6486 204.799 109.859H208.841C211.41 95.0226 211.347 80.3808 208.841 66.7575C208.526 65.0637 206.815 63.9981 205.138 64.4698C196.669 66.8797 186.716 67.8574 176.17 66.9847C155.527 65.2566 138.205 56.927 130.401 46.2238C129.807 45.4026 128.9 45.0017 128.008 45.0017C127.118 45.0017 126.209 45.4026 125.615 46.2238C117.811 56.927 100.489 65.2566 79.8502 66.9847C69.3036 67.8574 59.3509 66.8797 50.8818 64.4698C49.2052 63.9981 47.4942 65.0637 47.1812 66.7575C44.6769 80.383 44.6126 95.0226 47.1812 109.859H51.2249Z" fill="white"/>
		<path d="M191.747 109.859C193.333 101.738 194.294 92.9106 194.442 83.3246C194.442 83.3246 158.076 88.4531 127.963 66.6631C127.963 66.6631 103.33 87.4326 61.9454 83.1723C61.9454 83.1723 61.0771 94.2164 64.0959 109.859H191.747Z" fill="white"/>
		<path d="M80.5039 151.784C90.3301 167.292 105.272 182.509 127.963 193.874C127.963 193.874 155.739 183.002 175.389 151.784H80.5039Z" fill="white"/>
		<path d="M139.669 106.369L140.821 107.503L142.101 108.785C145.765 105.14 147.785 100.297 147.785 95.1424C147.785 89.9902 145.765 85.1425 142.101 81.4998L140.821 82.6919L139.669 83.9183C142.686 86.9178 144.346 90.9036 144.346 95.1424C144.348 99.3833 142.686 103.371 139.669 106.369Z" fill="#CC0000"/>
		<path d="M136.41 103.084C136.41 103.084 137.605 104.315 137.605 104.313V104.315C142.693 99.2591 142.693 91.0302 137.605 85.9724L136.37 87.1602L135.173 88.3909C138.921 92.1151 138.921 98.1742 135.173 101.898L136.41 103.084Z" fill="#CC0000"/>
		<path d="M126.657 151.784V179.974C126.657 180.92 127.426 181.685 128.376 181.685C129.326 181.685 130.096 180.92 130.096 179.974V151.784H126.657Z" fill="#CC0000"/>
		<path d="M119.155 104.31L120.352 103.084L121.587 101.894V101.892C117.839 98.1674 117.839 92.1083 121.587 88.3841C121.587 88.3477 120.388 87.1577 120.388 87.1577C120.388 87.1577 119.177 85.9485 119.155 85.9678C114.065 91.0234 114.065 99.2523 119.155 104.31Z" fill="#CC0000"/>
		<path d="M126.657 101.654V109.861H130.098V101.654C133.003 100.895 135.152 98.2621 135.152 95.1425H135.147C135.147 91.429 132.109 88.4102 128.374 88.4102C124.639 88.4102 121.601 91.4311 121.601 95.1425C121.603 98.2621 123.754 100.895 126.657 101.654ZM128.374 91.8278C130.212 91.8278 131.708 93.3158 131.708 95.1425C131.708 96.9692 130.212 98.4572 128.374 98.4572C126.537 98.4572 125.04 96.9692 125.04 95.1425C125.042 93.3158 126.539 91.8278 128.374 91.8278Z" fill="#CC0000"/>
		<path d="M115.935 107.503L117.086 106.366V106.362C114.07 103.363 112.41 99.3769 112.41 95.1381C112.41 90.8971 114.072 86.9113 117.086 83.9139L115.879 82.6961L114.655 81.4976C110.991 85.1425 108.971 89.988 108.971 95.1423C108.971 100.297 110.991 105.142 114.655 108.787L115.935 107.503Z" fill="#CC0000"/>
	</g>
	<defs>
		<clipPath id="clip0_173_112">
			<rect width="180.264" height="165.877" fill="white" transform="translate(38 45)"/>
		</clipPath>
	</defs>
</svg>