<svg width="310" height="36" viewBox="0 0 310 36" fill="none" xmlns="http://www.w3.org/2000/svg">
<path d="M17.9561 2.40625C20.2751 4.7038 24.1071 6.21678 28.2578 6.56445H28.2598C30.2491 6.72912 32.1699 6.61538 33.916 6.2627C34.5208 10.9668 33.7287 16.2301 31.3076 21.25V21.251C28.3161 27.463 23.4911 31.9524 18.2881 34.1309C18.1772 34.1772 18.0611 34.2001 17.957 34.2002C17.8528 34.2002 17.7361 34.1773 17.625 34.1309C12.422 31.9524 7.59794 27.4629 4.60645 21.251L4.60547 21.25C2.18441 16.2302 1.39134 10.9667 1.99609 6.2627C3.74259 6.61559 5.66439 6.72918 7.6543 6.56445H7.65527C11.8056 6.21682 15.6369 4.70346 17.9561 2.40625Z" fill="#CC0000" stroke="white" stroke-width="3.6"/>
<path d="M17.9551 0.431641C18.0195 0.431744 18.0821 0.460621 18.124 0.518555L18.125 0.519531C19.8639 2.90415 23.579 4.70448 27.9453 5.16113L28.3701 5.20117C30.7051 5.39447 32.9169 5.17855 34.8086 4.64062L34.8096 4.6416C34.9152 4.61188 35.0196 4.66683 35.0586 4.75879L35.0713 4.80078C36.0464 10.102 35.2893 16.1405 32.5381 21.8447C29.4125 28.3353 24.3486 33.0765 18.8145 35.3936C18.5404 35.5082 18.2448 35.5683 17.9551 35.5684C17.6652 35.5684 17.369 35.5083 17.0947 35.3936C11.5606 33.0765 6.49774 28.3351 3.37207 21.8447C0.620904 16.1405 -0.137245 10.1019 0.837891 4.80078C0.859423 4.68474 0.978739 4.60674 1.09961 4.64062C2.87327 5.14515 4.9282 5.36704 7.10254 5.2334L7.53906 5.20117C12.0882 4.82013 15.9892 2.9811 17.7842 0.519531L17.7852 0.518555C17.8272 0.460466 17.8906 0.431641 17.9551 0.431641Z" stroke="#070A10" stroke-width="0.864"/>
<path d="M19.4371 10.8816C19.4371 10.0756 18.7775 9.42055 17.9673 9.42055C17.1565 9.42055 16.4975 10.0762 16.4975 10.8816C16.4975 11.5589 16.9641 12.1302 17.5944 12.2948V29.2927C17.5944 29.4978 17.7615 29.6639 17.9678 29.6639C18.1741 29.6639 18.3412 29.4978 18.3412 29.2927V12.2948C18.9715 12.1302 19.4381 11.5589 19.4381 10.8816H19.4371ZM17.9673 11.6008C17.5686 11.6008 17.2438 11.2779 17.2438 10.8816C17.2438 10.4853 17.5686 10.1624 17.9673 10.1624C18.366 10.1624 18.6908 10.4853 18.6908 10.8816C18.6908 11.2779 18.366 11.6008 17.9673 11.6008ZM22.1799 10.8816C22.1799 12.0001 21.7415 13.0515 20.9461 13.8427L20.6685 13.5644L20.4185 13.3182C21.073 12.6675 21.4336 11.8024 21.4336 10.8821C21.4336 9.96176 21.0731 9.09671 20.4185 8.44594L20.6685 8.18003L20.9461 7.92146C21.7415 8.71213 22.1799 9.76412 22.1799 10.8826V10.8816ZM19.9702 12.872C19.9702 12.8726 19.7112 12.6055 19.7112 12.6055L19.4426 12.3475C20.2559 11.5391 20.2559 10.2245 19.4426 9.4161L19.7022 9.14922L19.9702 8.89163C21.0746 9.9894 21.0746 11.7754 19.9702 12.8726V12.872ZM15.5172 13.3176L15.2672 13.5644L14.9896 13.8421C14.1942 13.0514 13.7559 11.9995 13.7559 10.881C13.7559 9.76254 14.1942 8.71115 14.9896 7.91992L15.2551 8.18004L15.5172 8.4444C14.8627 9.09507 14.5022 9.96022 14.5022 10.8805C14.5022 11.8009 14.8627 12.6659 15.5172 13.3167V13.3176ZM16.4936 12.347L16.2256 12.6055L15.966 12.8715C14.8617 11.7738 14.8617 9.98778 15.966 8.89054C15.9705 8.88609 16.2335 9.14866 16.2335 9.14866C16.2335 9.14866 16.4936 9.40704 16.4936 9.41502C15.6804 10.2234 15.6804 11.5381 16.4936 12.3465V12.347Z" fill="white"/>
<path d="M57.8183 26.3466H43.5547V9.2771H57.8183V12.691H48.1807V15.7676H55.7623V19.6123H48.1807V22.9327H57.8183V26.3466Z" fill="white"/>
<path d="M57.8123 9.2771H62.6953L66.9359 17.568L71.1764 9.2771H76.0595L69.2489 21.8354V26.3466H64.6229V21.8354L57.8123 9.2771Z" fill="white"/>
<path d="M91.3491 26.3466H77.0855V9.2771H91.3491V12.691H81.7115V15.7676H91.2315V19.6123H81.7115V22.9327H91.3491V26.3466Z" fill="white"/>
<path d="M96.6116 26.3466H91.6001L98.4106 9.2771H103.551L110.361 26.3466H105.35L104.193 23.7073H97.7681L96.6116 26.3466ZM98.9246 19.924H103.037L100.981 14.3979L98.9246 19.924Z" fill="white"/>
<path d="M126.563 26.7229C125.971 26.7229 118.773 26.7229 115.415 26.7229C113.736 26.7229 112.6 26.2165 111.812 25.4687C111.023 24.7209 110.629 23.5505 110.629 21.9573V14.1541C110.629 12.4471 111.032 11.2116 111.837 10.4476C112.66 9.66726 113.97 9.2771 115.769 9.2771H126.563L126.529 12.691H116.797C115.769 12.691 115.255 13.1787 115.255 14.1541V21.9573C115.255 22.3312 115.367 22.6319 115.589 22.8595C115.829 23.0709 116.146 23.1765 116.54 23.1765C118.511 23.1765 120.31 23.1359 121.937 23.0546V19.5188H118.596V15.5706H126.563V26.7229Z" fill="white"/>
<path d="M133.765 22.9327H143.145V26.3466H129.138V9.2771H133.765V22.9327Z" fill="white"/>
<path d="M159.214 26.3466H144.95V9.2771H159.214V12.691H149.576V15.983H157.158V19.3969H149.576V22.9327H159.214V26.3466Z" fill="white"/>
<line x1="174.66" y1="2.5" x2="174.66" y2="33.5" stroke="white" stroke-linecap="round"/>
<path d="M192.628 15L189.8 11.262L189.072 12.13V15H187.084V5.662H189.072V9.834L192.376 5.662H194.826L191.116 10.044L195.078 15H192.628ZM195.126 11.612C195.126 9.652 196.568 8.07 198.626 8.07C200.642 8.07 202.014 9.582 202.014 11.794V12.186H196.988C197.1 13.04 197.786 13.754 198.934 13.754C199.564 13.754 200.306 13.502 200.74 13.082L201.524 14.23C200.838 14.86 199.788 15.168 198.738 15.168C196.68 15.168 195.126 13.782 195.126 11.612ZM198.626 9.484C197.52 9.484 197.044 10.31 196.96 10.982H200.292C200.25 10.338 199.802 9.484 198.626 9.484ZM202.864 11.612C202.864 9.652 204.306 8.07 206.364 8.07C208.38 8.07 209.752 9.582 209.752 11.794V12.186H204.726C204.838 13.04 205.524 13.754 206.672 13.754C207.302 13.754 208.044 13.502 208.478 13.082L209.262 14.23C208.576 14.86 207.526 15.168 206.476 15.168C204.418 15.168 202.864 13.782 202.864 11.612ZM206.364 9.484C205.258 9.484 204.782 10.31 204.698 10.982H208.03C207.988 10.338 207.54 9.484 206.364 9.484ZM212.814 17.576H211.036V8.238H212.814V9.092C213.332 8.434 214.074 8.07 214.9 8.07C216.636 8.07 217.896 9.358 217.896 11.612C217.896 13.866 216.636 15.168 214.9 15.168C214.102 15.168 213.36 14.832 212.814 14.132V17.576ZM216.048 11.612C216.048 10.45 215.362 9.652 214.34 9.652C213.766 9.652 213.108 9.988 212.814 10.422V12.816C213.108 13.236 213.766 13.586 214.34 13.586C215.362 13.586 216.048 12.788 216.048 11.612ZM220.108 7.244C219.534 7.244 219.044 6.768 219.044 6.18C219.044 5.592 219.534 5.116 220.108 5.116C220.696 5.116 221.172 5.592 221.172 6.18C221.172 6.768 220.696 7.244 220.108 7.244ZM219.226 15V8.238H221.004V15H219.226ZM227.331 15V10.912C227.331 9.974 226.841 9.652 226.085 9.652C225.385 9.652 224.839 10.044 224.545 10.45V15H222.767V8.238H224.545V9.12C224.979 8.602 225.805 8.07 226.911 8.07C228.395 8.07 229.109 8.91 229.109 10.226V15H227.331ZM230.734 16.736L231.532 15.448C232.078 16.05 232.792 16.288 233.646 16.288C234.5 16.288 235.508 15.91 235.508 14.58V13.894C234.976 14.566 234.248 14.958 233.422 14.958C231.728 14.958 230.44 13.768 230.44 11.514C230.44 9.302 231.714 8.07 233.422 8.07C234.234 8.07 234.962 8.42 235.508 9.106V8.238H237.3V14.538C237.3 17.114 235.312 17.744 233.646 17.744C232.484 17.744 231.574 17.478 230.734 16.736ZM235.508 12.606V10.422C235.214 9.974 234.57 9.652 233.982 9.652C232.974 9.652 232.274 10.352 232.274 11.514C232.274 12.676 232.974 13.376 233.982 13.376C234.57 13.376 235.214 13.04 235.508 12.606ZM245.292 15V11.178L241.694 5.662H243.962L246.286 9.414L248.582 5.662H250.85L247.28 11.178V15H245.292ZM253.069 15.168C250.843 15.168 249.499 13.544 249.499 11.612C249.499 9.694 250.843 8.07 253.069 8.07C255.309 8.07 256.653 9.694 256.653 11.612C256.653 13.544 255.309 15.168 253.069 15.168ZM253.069 13.586C254.175 13.586 254.805 12.676 254.805 11.612C254.805 10.562 254.175 9.652 253.069 9.652C251.963 9.652 251.347 10.562 251.347 11.612C251.347 12.676 251.963 13.586 253.069 13.586ZM262.536 15V14.146C262.074 14.664 261.262 15.168 260.156 15.168C258.672 15.168 257.972 14.356 257.972 13.04V8.238H259.75V12.34C259.75 13.278 260.24 13.586 260.996 13.586C261.682 13.586 262.228 13.208 262.536 12.816V8.238H264.314V15H262.536ZM269.059 13.684L270.151 12.172C270.809 12.858 271.831 13.432 273.119 13.432C274.211 13.432 274.743 12.914 274.743 12.382C274.743 11.682 273.931 11.444 272.853 11.192C271.327 10.842 269.367 10.422 269.367 8.336C269.367 6.782 270.711 5.522 272.909 5.522C274.393 5.522 275.625 5.97 276.549 6.824L275.443 8.28C274.687 7.58 273.679 7.258 272.769 7.258C271.873 7.258 271.397 7.65 271.397 8.21C271.397 8.84 272.181 9.036 273.259 9.288C274.799 9.638 276.759 10.1 276.759 12.172C276.759 13.88 275.541 15.168 273.021 15.168C271.229 15.168 269.941 14.566 269.059 13.684ZM282.116 15V14.3C281.654 14.846 280.856 15.168 279.974 15.168C278.896 15.168 277.622 14.44 277.622 12.928C277.622 11.346 278.896 10.772 279.974 10.772C280.87 10.772 281.668 11.052 282.116 11.598V10.66C282.116 9.974 281.528 9.526 280.632 9.526C279.904 9.526 279.232 9.792 278.658 10.324L277.986 9.134C278.812 8.406 279.876 8.07 280.94 8.07C282.48 8.07 283.894 8.686 283.894 10.632V15H282.116ZM282.116 13.376V12.536C281.822 12.144 281.262 11.948 280.688 11.948C279.988 11.948 279.414 12.326 279.414 12.97C279.414 13.6 279.988 13.964 280.688 13.964C281.262 13.964 281.822 13.768 282.116 13.376ZM286.049 15V9.792H284.929V8.238H286.049V7.874C286.049 6.404 287.001 5.522 288.331 5.522C288.835 5.522 289.297 5.634 289.619 5.802L289.255 7.062C289.101 6.964 288.891 6.922 288.681 6.922C288.177 6.922 287.841 7.258 287.841 7.902V8.238H289.213V9.792H287.841V15H286.049ZM289.803 11.612C289.803 9.652 291.245 8.07 293.303 8.07C295.319 8.07 296.691 9.582 296.691 11.794V12.186H291.665C291.777 13.04 292.463 13.754 293.611 13.754C294.241 13.754 294.983 13.502 295.417 13.082L296.201 14.23C295.515 14.86 294.465 15.168 293.415 15.168C291.357 15.168 289.803 13.782 289.803 11.612ZM293.303 9.484C292.197 9.484 291.721 10.31 291.637 10.982H294.969C294.927 10.338 294.479 9.484 293.303 9.484ZM298.607 16.918L297.837 16.288C298.285 16.05 298.803 15.476 298.915 14.986C298.873 15 298.747 15.028 298.649 15.028C298.117 15.028 297.697 14.608 297.697 14.006C297.697 13.39 298.201 12.886 298.789 12.886C299.447 12.886 300.049 13.404 300.049 14.314C300.049 15.364 299.461 16.302 298.607 16.918ZM194.224 29L192.586 22.588L190.962 29H188.848L186.174 19.662H188.4L190.038 26.41L191.816 19.662H193.37L195.134 26.41L196.758 19.662H198.998L196.338 29H194.224ZM204.472 29V24.884C204.472 23.946 203.982 23.652 203.212 23.652C202.526 23.652 201.98 24.044 201.672 24.45V29H199.894V19.662H201.672V23.12C202.106 22.602 202.946 22.07 204.052 22.07C205.536 22.07 206.25 22.882 206.25 24.198V29H204.472ZM207.581 25.612C207.581 23.652 209.023 22.07 211.081 22.07C213.097 22.07 214.469 23.582 214.469 25.794V26.186H209.443C209.555 27.04 210.241 27.754 211.389 27.754C212.019 27.754 212.761 27.502 213.195 27.082L213.979 28.23C213.293 28.86 212.243 29.168 211.193 29.168C209.135 29.168 207.581 27.782 207.581 25.612ZM211.081 23.484C209.975 23.484 209.499 24.31 209.415 24.982H212.747C212.705 24.338 212.257 23.484 211.081 23.484ZM215.753 29V22.238H217.531V23.162C218.007 22.56 218.847 22.084 219.687 22.084V23.82C219.561 23.792 219.393 23.778 219.197 23.778C218.609 23.778 217.825 24.1 217.531 24.534V29H215.753ZM220.364 25.612C220.364 23.652 221.806 22.07 223.864 22.07C225.88 22.07 227.252 23.582 227.252 25.794V26.186H222.226C222.338 27.04 223.024 27.754 224.172 27.754C224.802 27.754 225.544 27.502 225.978 27.082L226.762 28.23C226.076 28.86 225.026 29.168 223.976 29.168C221.918 29.168 220.364 27.782 220.364 25.612ZM223.864 23.484C222.758 23.484 222.282 24.31 222.198 24.982H225.53C225.488 24.338 225.04 23.484 223.864 23.484ZM230.286 29L227.57 22.238H229.474L231.238 26.942L233.002 22.238H234.92L232.204 29H230.286ZM235.28 25.612C235.28 23.652 236.722 22.07 238.78 22.07C240.796 22.07 242.168 23.582 242.168 25.794V26.186H237.142C237.254 27.04 237.94 27.754 239.088 27.754C239.718 27.754 240.46 27.502 240.894 27.082L241.678 28.23C240.992 28.86 239.942 29.168 238.892 29.168C236.834 29.168 235.28 27.782 235.28 25.612ZM238.78 23.484C237.674 23.484 237.198 24.31 237.114 24.982H240.446C240.404 24.338 239.956 23.484 238.78 23.484ZM243.452 29V22.238H245.23V23.162C245.706 22.56 246.546 22.084 247.386 22.084V23.82C247.26 23.792 247.092 23.778 246.896 23.778C246.308 23.778 245.524 24.1 245.23 24.534V29H243.452ZM254.725 29V25.178L251.127 19.662H253.395L255.719 23.414L258.015 19.662H260.283L256.713 25.178V29H254.725ZM262.502 29.168C260.276 29.168 258.932 27.544 258.932 25.612C258.932 23.694 260.276 22.07 262.502 22.07C264.742 22.07 266.086 23.694 266.086 25.612C266.086 27.544 264.742 29.168 262.502 29.168ZM262.502 27.586C263.608 27.586 264.238 26.676 264.238 25.612C264.238 24.562 263.608 23.652 262.502 23.652C261.396 23.652 260.78 24.562 260.78 25.612C260.78 26.676 261.396 27.586 262.502 27.586ZM271.969 29V28.146C271.507 28.664 270.695 29.168 269.589 29.168C268.105 29.168 267.405 28.356 267.405 27.04V22.238H269.183V26.34C269.183 27.278 269.673 27.586 270.429 27.586C271.115 27.586 271.661 27.208 271.969 26.816V22.238H273.747V29H271.969ZM285.675 29L285.087 27.39H280.915L280.327 29H278.143L281.755 19.662H284.247L287.845 29H285.675ZM283.001 21.384L281.447 25.668H284.541L283.001 21.384ZM288.665 29V22.238H290.443V23.162C290.919 22.56 291.759 22.084 292.599 22.084V23.82C292.473 23.792 292.305 23.778 292.109 23.778C291.521 23.778 290.737 24.1 290.443 24.534V29H288.665ZM293.276 25.612C293.276 23.652 294.718 22.07 296.776 22.07C298.792 22.07 300.164 23.582 300.164 25.794V26.186H295.138C295.25 27.04 295.936 27.754 297.084 27.754C297.714 27.754 298.456 27.502 298.89 27.082L299.674 28.23C298.988 28.86 297.938 29.168 296.888 29.168C294.83 29.168 293.276 27.782 293.276 25.612ZM296.776 23.484C295.67 23.484 295.194 24.31 295.11 24.982H298.442C298.4 24.338 297.952 23.484 296.776 23.484ZM301.17 28.02C301.17 27.404 301.688 26.886 302.304 26.886C302.92 26.886 303.438 27.404 303.438 28.02C303.438 28.636 302.92 29.154 302.304 29.154C301.688 29.154 301.17 28.636 301.17 28.02Z" fill="white"/>
</svg>
