<svg width="310" height="36" viewBox="0 0 310 36" fill="none" xmlns="http://www.w3.org/2000/svg">
<path d="M17.9541 2.40625C20.2732 4.7038 24.1051 6.21678 28.2559 6.56445H28.2578C30.2472 6.72912 32.1679 6.61538 33.9141 6.2627C34.5189 10.9668 33.7268 16.2301 31.3057 21.25V21.251C28.3142 27.463 23.4892 31.9524 18.2861 34.1309C18.1753 34.1772 18.0592 34.2001 17.9551 34.2002C17.8508 34.2002 17.7341 34.1773 17.623 34.1309C12.42 31.9524 7.59599 27.4629 4.60449 21.251L4.60352 21.25C2.18246 16.2302 1.38938 10.9667 1.99414 6.2627C3.74064 6.61559 5.66244 6.72918 7.65234 6.56445H7.65332C11.8037 6.21682 15.635 4.70346 17.9541 2.40625Z" fill="#CC0000" stroke="white" stroke-width="3.6"/>
<path d="M17.9551 0.431641C18.0195 0.431744 18.0821 0.460621 18.124 0.518555L18.125 0.519531C19.8639 2.90415 23.579 4.70448 27.9453 5.16113L28.3701 5.20117C30.7051 5.39447 32.9169 5.17855 34.8086 4.64062L34.8096 4.6416C34.9152 4.61188 35.0196 4.66683 35.0586 4.75879L35.0713 4.80078C36.0464 10.102 35.2893 16.1405 32.5381 21.8447C29.4125 28.3353 24.3486 33.0765 18.8145 35.3936C18.5404 35.5082 18.2448 35.5683 17.9551 35.5684C17.6652 35.5684 17.369 35.5083 17.0947 35.3936C11.5606 33.0765 6.49774 28.3351 3.37207 21.8447C0.620904 16.1405 -0.137245 10.1019 0.837891 4.80078C0.859423 4.68474 0.978739 4.60674 1.09961 4.64062C2.87327 5.14515 4.9282 5.36704 7.10254 5.2334L7.53906 5.20117C12.0882 4.82013 15.9892 2.9811 17.7842 0.519531L17.7852 0.518555C17.8272 0.460466 17.8906 0.431641 17.9551 0.431641Z" stroke="#070A10" stroke-width="0.864"/>
<path d="M19.439 10.8836C19.439 10.0776 18.7795 9.4225 17.9692 9.4225C17.1585 9.4225 16.4995 10.0781 16.4995 10.8836C16.4995 11.5608 16.9661 12.1322 17.5964 12.2968V29.2947C17.5964 29.4998 17.7635 29.6659 17.9697 29.6659C18.176 29.6659 18.3431 29.4998 18.3431 29.2947V12.2968C18.9734 12.1321 19.44 11.5608 19.44 10.8836H19.439ZM17.9692 11.6027C17.5706 11.6027 17.2458 11.2799 17.2458 10.8836C17.2458 10.4872 17.5706 10.1644 17.9692 10.1644C18.3679 10.1644 18.6927 10.4872 18.6927 10.8836C18.6927 11.2799 18.3679 11.6027 17.9692 11.6027ZM22.1818 10.8836C22.1818 12.002 21.7435 13.0534 20.9481 13.8446L20.6704 13.5663L20.4204 13.3202C21.075 12.6695 21.4355 11.8044 21.4355 10.884C21.4355 9.96371 21.075 9.09867 20.4204 8.44789L20.6704 8.18198L20.9481 7.92341C21.7434 8.71408 22.1818 9.76607 22.1818 10.8845V10.8836ZM19.9722 12.874C19.9722 12.8746 19.7131 12.6075 19.7131 12.6075L19.4446 12.3495C20.2578 11.5411 20.2578 10.2264 19.4446 9.41806L19.7042 9.15117L19.9722 8.89358C21.0765 9.99135 21.0765 11.7773 19.9722 12.8746V12.874ZM15.5192 13.3196L15.2692 13.5664L14.9916 13.8441C14.1962 13.0534 13.7578 12.0014 13.7578 10.883C13.7578 9.76449 14.1962 8.7131 14.9916 7.92188L15.2571 8.18199L15.5192 8.44635C14.8646 9.09703 14.5041 9.96217 14.5041 10.8825C14.5041 11.8028 14.8646 12.6679 15.5192 13.3186V13.3196ZM16.4956 12.349L16.2275 12.6075L15.968 12.8735C14.8636 11.7757 14.8636 9.98973 15.968 8.89249C15.9724 8.88804 16.2355 9.15061 16.2355 9.15061C16.2355 9.15061 16.4956 9.409 16.4956 9.41697C15.6823 10.2254 15.6823 11.54 16.4956 12.3484V12.349Z" fill="white"/>
<path d="M57.8105 26.3468H43.5469V9.27734H57.8105V12.6912H48.1729V15.7678H55.7545V19.6125H48.1729V22.9329H57.8105V26.3468Z" fill="#070A10"/>
<path d="M57.8045 9.27734H62.6875L66.9281 17.5682L71.1686 9.27734H76.0517L69.2411 21.8356V26.3468H64.615V21.8356L57.8045 9.27734Z" fill="#070A10"/>
<path d="M91.3413 26.3468H77.0777V9.27734H91.3413V12.6912H81.7037V15.7678H91.2237V19.6125H81.7037V22.9329H91.3413V26.3468Z" fill="#070A10"/>
<path d="M96.6038 26.3468H91.5923L98.4028 9.27734H103.543L110.353 26.3468H105.342L104.185 23.7075H97.7603L96.6038 26.3468ZM98.9168 19.9243H103.029L100.973 14.3982L98.9168 19.9243Z" fill="#070A10"/>
<path d="M126.556 26.7231C125.963 26.7231 118.765 26.7231 115.407 26.7231C113.728 26.7231 112.592 26.2168 111.804 25.469C111.016 24.7212 110.621 23.5507 110.621 21.9575V14.1543C110.621 12.4474 111.024 11.2119 111.829 10.4478C112.652 9.6675 113.963 9.27734 115.762 9.27734H126.556L126.522 12.6912H116.79C115.762 12.6912 115.248 13.1789 115.248 14.1543V21.9575C115.248 22.3314 115.359 22.6322 115.582 22.8598C115.821 23.0711 116.138 23.1768 116.533 23.1768C118.503 23.1768 120.302 23.1362 121.93 23.0549V19.519H118.589V15.5708H126.556V26.7231Z" fill="#070A10"/>
<path d="M133.757 22.9329H143.137V26.3468H129.131V9.27734H133.757V22.9329Z" fill="#070A10"/>
<path d="M159.206 26.3468H144.942V9.27734H159.206V12.6912H149.568V15.9832H157.15V19.3971H149.568V22.9329H159.206V26.3468Z" fill="#070A10"/>
<line x1="174.656" y1="2.5" x2="174.656" y2="33.5" stroke="#070A10" stroke-linecap="round"/>
<path d="M192.624 15L189.796 11.262L189.068 12.13V15H187.08V5.662H189.068V9.834L192.372 5.662H194.822L191.112 10.044L195.074 15H192.624ZM195.122 11.612C195.122 9.652 196.564 8.07 198.622 8.07C200.638 8.07 202.01 9.582 202.01 11.794V12.186H196.984C197.096 13.04 197.782 13.754 198.93 13.754C199.56 13.754 200.302 13.502 200.736 13.082L201.52 14.23C200.834 14.86 199.784 15.168 198.734 15.168C196.676 15.168 195.122 13.782 195.122 11.612ZM198.622 9.484C197.516 9.484 197.04 10.31 196.956 10.982H200.288C200.246 10.338 199.798 9.484 198.622 9.484ZM202.86 11.612C202.86 9.652 204.302 8.07 206.36 8.07C208.376 8.07 209.748 9.582 209.748 11.794V12.186H204.722C204.834 13.04 205.52 13.754 206.668 13.754C207.298 13.754 208.04 13.502 208.474 13.082L209.258 14.23C208.572 14.86 207.522 15.168 206.472 15.168C204.414 15.168 202.86 13.782 202.86 11.612ZM206.36 9.484C205.254 9.484 204.778 10.31 204.694 10.982H208.026C207.984 10.338 207.536 9.484 206.36 9.484ZM212.81 17.576H211.032V8.238H212.81V9.092C213.328 8.434 214.07 8.07 214.896 8.07C216.632 8.07 217.892 9.358 217.892 11.612C217.892 13.866 216.632 15.168 214.896 15.168C214.098 15.168 213.356 14.832 212.81 14.132V17.576ZM216.044 11.612C216.044 10.45 215.358 9.652 214.336 9.652C213.762 9.652 213.104 9.988 212.81 10.422V12.816C213.104 13.236 213.762 13.586 214.336 13.586C215.358 13.586 216.044 12.788 216.044 11.612ZM220.104 7.244C219.53 7.244 219.04 6.768 219.04 6.18C219.04 5.592 219.53 5.116 220.104 5.116C220.692 5.116 221.168 5.592 221.168 6.18C221.168 6.768 220.692 7.244 220.104 7.244ZM219.222 15V8.238H221V15H219.222ZM227.327 15V10.912C227.327 9.974 226.837 9.652 226.081 9.652C225.381 9.652 224.835 10.044 224.541 10.45V15H222.763V8.238H224.541V9.12C224.975 8.602 225.801 8.07 226.907 8.07C228.391 8.07 229.105 8.91 229.105 10.226V15H227.327ZM230.73 16.736L231.528 15.448C232.074 16.05 232.788 16.288 233.642 16.288C234.496 16.288 235.504 15.91 235.504 14.58V13.894C234.972 14.566 234.244 14.958 233.418 14.958C231.724 14.958 230.436 13.768 230.436 11.514C230.436 9.302 231.71 8.07 233.418 8.07C234.23 8.07 234.958 8.42 235.504 9.106V8.238H237.296V14.538C237.296 17.114 235.308 17.744 233.642 17.744C232.48 17.744 231.57 17.478 230.73 16.736ZM235.504 12.606V10.422C235.21 9.974 234.566 9.652 233.978 9.652C232.97 9.652 232.27 10.352 232.27 11.514C232.27 12.676 232.97 13.376 233.978 13.376C234.566 13.376 235.21 13.04 235.504 12.606ZM245.288 15V11.178L241.69 5.662H243.958L246.282 9.414L248.578 5.662H250.846L247.276 11.178V15H245.288ZM253.065 15.168C250.839 15.168 249.495 13.544 249.495 11.612C249.495 9.694 250.839 8.07 253.065 8.07C255.305 8.07 256.649 9.694 256.649 11.612C256.649 13.544 255.305 15.168 253.065 15.168ZM253.065 13.586C254.171 13.586 254.801 12.676 254.801 11.612C254.801 10.562 254.171 9.652 253.065 9.652C251.959 9.652 251.343 10.562 251.343 11.612C251.343 12.676 251.959 13.586 253.065 13.586ZM262.532 15V14.146C262.07 14.664 261.258 15.168 260.152 15.168C258.668 15.168 257.968 14.356 257.968 13.04V8.238H259.746V12.34C259.746 13.278 260.236 13.586 260.992 13.586C261.678 13.586 262.224 13.208 262.532 12.816V8.238H264.31V15H262.532ZM269.055 13.684L270.147 12.172C270.805 12.858 271.827 13.432 273.115 13.432C274.207 13.432 274.739 12.914 274.739 12.382C274.739 11.682 273.927 11.444 272.849 11.192C271.323 10.842 269.363 10.422 269.363 8.336C269.363 6.782 270.707 5.522 272.905 5.522C274.389 5.522 275.621 5.97 276.545 6.824L275.439 8.28C274.683 7.58 273.675 7.258 272.765 7.258C271.869 7.258 271.393 7.65 271.393 8.21C271.393 8.84 272.177 9.036 273.255 9.288C274.795 9.638 276.755 10.1 276.755 12.172C276.755 13.88 275.537 15.168 273.017 15.168C271.225 15.168 269.937 14.566 269.055 13.684ZM282.112 15V14.3C281.65 14.846 280.852 15.168 279.97 15.168C278.892 15.168 277.618 14.44 277.618 12.928C277.618 11.346 278.892 10.772 279.97 10.772C280.866 10.772 281.664 11.052 282.112 11.598V10.66C282.112 9.974 281.524 9.526 280.628 9.526C279.9 9.526 279.228 9.792 278.654 10.324L277.982 9.134C278.808 8.406 279.872 8.07 280.936 8.07C282.476 8.07 283.89 8.686 283.89 10.632V15H282.112ZM282.112 13.376V12.536C281.818 12.144 281.258 11.948 280.684 11.948C279.984 11.948 279.41 12.326 279.41 12.97C279.41 13.6 279.984 13.964 280.684 13.964C281.258 13.964 281.818 13.768 282.112 13.376ZM286.045 15V9.792H284.925V8.238H286.045V7.874C286.045 6.404 286.997 5.522 288.327 5.522C288.831 5.522 289.293 5.634 289.615 5.802L289.251 7.062C289.097 6.964 288.887 6.922 288.677 6.922C288.173 6.922 287.837 7.258 287.837 7.902V8.238H289.209V9.792H287.837V15H286.045ZM289.8 11.612C289.8 9.652 291.242 8.07 293.3 8.07C295.316 8.07 296.688 9.582 296.688 11.794V12.186H291.662C291.774 13.04 292.46 13.754 293.608 13.754C294.238 13.754 294.98 13.502 295.414 13.082L296.198 14.23C295.512 14.86 294.462 15.168 293.412 15.168C291.354 15.168 289.8 13.782 289.8 11.612ZM293.3 9.484C292.194 9.484 291.718 10.31 291.634 10.982H294.966C294.924 10.338 294.476 9.484 293.3 9.484ZM298.603 16.918L297.833 16.288C298.281 16.05 298.799 15.476 298.911 14.986C298.869 15 298.743 15.028 298.645 15.028C298.113 15.028 297.693 14.608 297.693 14.006C297.693 13.39 298.197 12.886 298.785 12.886C299.443 12.886 300.045 13.404 300.045 14.314C300.045 15.364 299.457 16.302 298.603 16.918ZM194.22 29L192.582 22.588L190.958 29H188.844L186.17 19.662H188.396L190.034 26.41L191.812 19.662H193.366L195.13 26.41L196.754 19.662H198.994L196.334 29H194.22ZM204.468 29V24.884C204.468 23.946 203.978 23.652 203.208 23.652C202.522 23.652 201.976 24.044 201.668 24.45V29H199.89V19.662H201.668V23.12C202.102 22.602 202.942 22.07 204.048 22.07C205.532 22.07 206.246 22.882 206.246 24.198V29H204.468ZM207.577 25.612C207.577 23.652 209.019 22.07 211.077 22.07C213.093 22.07 214.465 23.582 214.465 25.794V26.186H209.439C209.551 27.04 210.237 27.754 211.385 27.754C212.015 27.754 212.757 27.502 213.191 27.082L213.975 28.23C213.289 28.86 212.239 29.168 211.189 29.168C209.131 29.168 207.577 27.782 207.577 25.612ZM211.077 23.484C209.971 23.484 209.495 24.31 209.411 24.982H212.743C212.701 24.338 212.253 23.484 211.077 23.484ZM215.749 29V22.238H217.527V23.162C218.003 22.56 218.843 22.084 219.683 22.084V23.82C219.557 23.792 219.389 23.778 219.193 23.778C218.605 23.778 217.821 24.1 217.527 24.534V29H215.749ZM220.36 25.612C220.36 23.652 221.802 22.07 223.86 22.07C225.876 22.07 227.248 23.582 227.248 25.794V26.186H222.222C222.334 27.04 223.02 27.754 224.168 27.754C224.798 27.754 225.54 27.502 225.974 27.082L226.758 28.23C226.072 28.86 225.022 29.168 223.972 29.168C221.914 29.168 220.36 27.782 220.36 25.612ZM223.86 23.484C222.754 23.484 222.278 24.31 222.194 24.982H225.526C225.484 24.338 225.036 23.484 223.86 23.484ZM230.282 29L227.566 22.238H229.47L231.234 26.942L232.998 22.238H234.916L232.2 29H230.282ZM235.276 25.612C235.276 23.652 236.718 22.07 238.776 22.07C240.792 22.07 242.164 23.582 242.164 25.794V26.186H237.138C237.25 27.04 237.936 27.754 239.084 27.754C239.714 27.754 240.456 27.502 240.89 27.082L241.674 28.23C240.988 28.86 239.938 29.168 238.888 29.168C236.83 29.168 235.276 27.782 235.276 25.612ZM238.776 23.484C237.67 23.484 237.194 24.31 237.11 24.982H240.442C240.4 24.338 239.952 23.484 238.776 23.484ZM243.448 29V22.238H245.226V23.162C245.702 22.56 246.542 22.084 247.382 22.084V23.82C247.256 23.792 247.088 23.778 246.892 23.778C246.304 23.778 245.52 24.1 245.226 24.534V29H243.448ZM254.721 29V25.178L251.123 19.662H253.391L255.715 23.414L258.011 19.662H260.279L256.709 25.178V29H254.721ZM262.498 29.168C260.272 29.168 258.928 27.544 258.928 25.612C258.928 23.694 260.272 22.07 262.498 22.07C264.738 22.07 266.082 23.694 266.082 25.612C266.082 27.544 264.738 29.168 262.498 29.168ZM262.498 27.586C263.604 27.586 264.234 26.676 264.234 25.612C264.234 24.562 263.604 23.652 262.498 23.652C261.392 23.652 260.776 24.562 260.776 25.612C260.776 26.676 261.392 27.586 262.498 27.586ZM271.966 29V28.146C271.504 28.664 270.692 29.168 269.586 29.168C268.102 29.168 267.402 28.356 267.402 27.04V22.238H269.18V26.34C269.18 27.278 269.67 27.586 270.426 27.586C271.112 27.586 271.658 27.208 271.966 26.816V22.238H273.744V29H271.966ZM285.671 29L285.083 27.39H280.911L280.323 29H278.139L281.751 19.662H284.243L287.841 29H285.671ZM282.997 21.384L281.443 25.668H284.537L282.997 21.384ZM288.661 29V22.238H290.439V23.162C290.915 22.56 291.755 22.084 292.595 22.084V23.82C292.469 23.792 292.301 23.778 292.105 23.778C291.517 23.778 290.733 24.1 290.439 24.534V29H288.661ZM293.272 25.612C293.272 23.652 294.714 22.07 296.772 22.07C298.788 22.07 300.16 23.582 300.16 25.794V26.186H295.134C295.246 27.04 295.932 27.754 297.08 27.754C297.71 27.754 298.452 27.502 298.886 27.082L299.67 28.23C298.984 28.86 297.934 29.168 296.884 29.168C294.826 29.168 293.272 27.782 293.272 25.612ZM296.772 23.484C295.666 23.484 295.19 24.31 295.106 24.982H298.438C298.396 24.338 297.948 23.484 296.772 23.484ZM301.166 28.02C301.166 27.404 301.684 26.886 302.3 26.886C302.916 26.886 303.434 27.404 303.434 28.02C303.434 28.636 302.916 29.154 302.3 29.154C301.684 29.154 301.166 28.636 301.166 28.02Z" fill="#070A10"/>
</svg>
