<svg xmlns="http://www.w3.org/2000/svg" width="118" height="28" viewBox="0 0 118 28" fill="none">
<path id="Your Guardian, Wherever You Are." d="M3.528 11V7.178L-0.07 1.662H2.198L4.522 5.414L6.818 1.662H9.086L5.516 7.178V11H3.528ZM11.3051 11.168C9.07911 11.168 7.73511 9.544 7.73511 7.612C7.73511 5.694 9.07911 4.07 11.3051 4.07C13.5451 4.07 14.8891 5.694 14.8891 7.612C14.8891 9.544 13.5451 11.168 11.3051 11.168ZM11.3051 9.586C12.4111 9.586 13.0411 8.676 13.0411 7.612C13.0411 6.562 12.4111 5.652 11.3051 5.652C10.1991 5.652 9.58311 6.562 9.58311 7.612C9.58311 8.676 10.1991 9.586 11.3051 9.586ZM20.7722 11V10.146C20.3102 10.664 19.4982 11.168 18.3922 11.168C16.9082 11.168 16.2082 10.356 16.2082 9.04V4.238H17.9862V8.34C17.9862 9.278 18.4762 9.586 19.2322 9.586C19.9182 9.586 20.4642 9.208 20.7722 8.816V4.238H22.5502V11H20.7722ZM24.3156 11V4.238H26.0936V5.162C26.5696 4.56 27.4096 4.084 28.2496 4.084V5.82C28.1236 5.792 27.9556 5.778 27.7596 5.778C27.1716 5.778 26.3876 6.1 26.0936 6.534V11H24.3156ZM32.5365 6.338C32.5365 3.384 34.7765 1.508 37.5065 1.508C39.4385 1.508 40.6565 2.446 41.3705 3.552L39.7185 4.448C39.2845 3.79 38.4865 3.272 37.5065 3.272C35.8125 3.272 34.5805 4.574 34.5805 6.338C34.5805 8.102 35.8125 9.404 37.5065 9.404C38.3605 9.404 39.1165 9.054 39.5225 8.69V7.556H37.0305V5.848H41.4825V9.418C40.5305 10.482 39.2005 11.182 37.5065 11.182C34.7765 11.182 32.5365 9.278 32.5365 6.338ZM47.5827 11V10.146C47.1207 10.664 46.3087 11.168 45.2027 11.168C43.7187 11.168 43.0187 10.356 43.0187 9.04V4.238H44.7967V8.34C44.7967 9.278 45.2867 9.586 46.0427 9.586C46.7287 9.586 47.2747 9.208 47.5827 8.816V4.238H49.3607V11H47.5827ZM55.1861 11V10.3C54.7241 10.846 53.9261 11.168 53.0441 11.168C51.9661 11.168 50.6921 10.44 50.6921 8.928C50.6921 7.346 51.9661 6.772 53.0441 6.772C53.9401 6.772 54.7381 7.052 55.1861 7.598V6.66C55.1861 5.974 54.5981 5.526 53.7021 5.526C52.9741 5.526 52.3021 5.792 51.7281 6.324L51.0561 5.134C51.8821 4.406 52.9461 4.07 54.0101 4.07C55.5501 4.07 56.9641 4.686 56.9641 6.632V11H55.1861ZM55.1861 9.376V8.536C54.8921 8.144 54.3321 7.948 53.7581 7.948C53.0581 7.948 52.4841 8.326 52.4841 8.97C52.4841 9.6 53.0581 9.964 53.7581 9.964C54.3321 9.964 54.8921 9.768 55.1861 9.376ZM58.7277 11V4.238H60.5057V5.162C60.9817 4.56 61.8217 4.084 62.6617 4.084V5.82C62.5357 5.792 62.3677 5.778 62.1717 5.778C61.5837 5.778 60.7997 6.1 60.5057 6.534V11H58.7277ZM68.4206 11V10.146C67.8886 10.804 67.1466 11.168 66.3346 11.168C64.6266 11.168 63.3386 9.88 63.3386 7.626C63.3386 5.414 64.6126 4.07 66.3346 4.07C67.1326 4.07 67.8886 4.42 68.4206 5.106V1.662H70.2126V11H68.4206ZM68.4206 8.816V6.422C68.1126 5.974 67.4826 5.652 66.8806 5.652C65.8726 5.652 65.1726 6.45 65.1726 7.626C65.1726 8.788 65.8726 9.586 66.8806 9.586C67.4826 9.586 68.1126 9.264 68.4206 8.816ZM72.8578 3.244C72.2838 3.244 71.7938 2.768 71.7938 2.18C71.7938 1.592 72.2838 1.116 72.8578 1.116C73.4458 1.116 73.9218 1.592 73.9218 2.18C73.9218 2.768 73.4458 3.244 72.8578 3.244ZM71.9758 11V4.238H73.7538V11H71.9758ZM79.5768 11V10.3C79.1148 10.846 78.3168 11.168 77.4348 11.168C76.3568 11.168 75.0828 10.44 75.0828 8.928C75.0828 7.346 76.3568 6.772 77.4348 6.772C78.3308 6.772 79.1288 7.052 79.5768 7.598V6.66C79.5768 5.974 78.9888 5.526 78.0928 5.526C77.3648 5.526 76.6928 5.792 76.1188 6.324L75.4468 5.134C76.2728 4.406 77.3368 4.07 78.4008 4.07C79.9408 4.07 81.3548 4.686 81.3548 6.632V11H79.5768ZM79.5768 9.376V8.536C79.2828 8.144 78.7228 7.948 78.1488 7.948C77.4488 7.948 76.8748 8.326 76.8748 8.97C76.8748 9.6 77.4488 9.964 78.1488 9.964C78.7228 9.964 79.2828 9.768 79.5768 9.376ZM87.6823 11V6.912C87.6823 5.974 87.1923 5.652 86.4363 5.652C85.7363 5.652 85.1903 6.044 84.8963 6.45V11H83.1183V4.238H84.8963V5.12C85.3303 4.602 86.1563 4.07 87.2623 4.07C88.7463 4.07 89.4603 4.91 89.4603 6.226V11H87.6823ZM91.9118 12.918L91.1418 12.288C91.5898 12.05 92.1078 11.476 92.2198 10.986C92.1778 11 92.0518 11.028 91.9538 11.028C91.4218 11.028 91.0018 10.608 91.0018 10.006C91.0018 9.39 91.5058 8.886 92.0938 8.886C92.7518 8.886 93.3538 9.404 93.3538 10.314C93.3538 11.364 92.7658 12.302 91.9118 12.918ZM8.064 25L6.426 18.588L4.802 25H2.688L0.014 15.662H2.24L3.878 22.41L5.656 15.662H7.21L8.974 22.41L10.598 15.662H12.838L10.178 25H8.064ZM18.3116 25V20.884C18.3116 19.946 17.8216 19.652 17.0516 19.652C16.3656 19.652 15.8196 20.044 15.5116 20.45V25H13.7336V15.662H15.5116V19.12C15.9456 18.602 16.7856 18.07 17.8916 18.07C19.3756 18.07 20.0896 18.882 20.0896 20.198V25H18.3116ZM21.4207 21.612C21.4207 19.652 22.8627 18.07 24.9207 18.07C26.9367 18.07 28.3087 19.582 28.3087 21.794V22.186H23.2827C23.3947 23.04 24.0807 23.754 25.2287 23.754C25.8587 23.754 26.6007 23.502 27.0347 23.082L27.8187 24.23C27.1327 24.86 26.0827 25.168 25.0327 25.168C22.9747 25.168 21.4207 23.782 21.4207 21.612ZM24.9207 19.484C23.8147 19.484 23.3387 20.31 23.2547 20.982H26.5867C26.5447 20.338 26.0967 19.484 24.9207 19.484ZM29.5929 25V18.238H31.3709V19.162C31.8469 18.56 32.6869 18.084 33.5269 18.084V19.82C33.4009 19.792 33.2329 19.778 33.0369 19.778C32.4489 19.778 31.6649 20.1 31.3709 20.534V25H29.5929ZM34.2039 21.612C34.2039 19.652 35.6459 18.07 37.7039 18.07C39.7199 18.07 41.0919 19.582 41.0919 21.794V22.186H36.0659C36.1779 23.04 36.8639 23.754 38.0119 23.754C38.6419 23.754 39.3839 23.502 39.8179 23.082L40.6019 24.23C39.9159 24.86 38.8659 25.168 37.8159 25.168C35.7579 25.168 34.2039 23.782 34.2039 21.612ZM37.7039 19.484C36.5979 19.484 36.1219 20.31 36.0379 20.982H39.3699C39.3279 20.338 38.8799 19.484 37.7039 19.484ZM44.1261 25L41.4101 18.238H43.3141L45.0781 22.942L46.8421 18.238H48.7601L46.0441 25H44.1261ZM49.1199 21.612C49.1199 19.652 50.5619 18.07 52.6199 18.07C54.6359 18.07 56.0079 19.582 56.0079 21.794V22.186H50.9819C51.0939 23.04 51.7799 23.754 52.9279 23.754C53.5579 23.754 54.2999 23.502 54.7339 23.082L55.5179 24.23C54.8319 24.86 53.7819 25.168 52.7319 25.168C50.6739 25.168 49.1199 23.782 49.1199 21.612ZM52.6199 19.484C51.5139 19.484 51.0379 20.31 50.9539 20.982H54.2859C54.2439 20.338 53.7959 19.484 52.6199 19.484ZM57.2922 25V18.238H59.0702V19.162C59.5462 18.56 60.3862 18.084 61.2262 18.084V19.82C61.1002 19.792 60.9322 19.778 60.7362 19.778C60.1482 19.778 59.3642 20.1 59.0702 20.534V25H57.2922ZM68.5651 25V21.178L64.9671 15.662H67.2351L69.5591 19.414L71.8551 15.662H74.1231L70.5531 21.178V25H68.5651ZM76.3422 25.168C74.1162 25.168 72.7722 23.544 72.7722 21.612C72.7722 19.694 74.1162 18.07 76.3422 18.07C78.5822 18.07 79.9262 19.694 79.9262 21.612C79.9262 23.544 78.5822 25.168 76.3422 25.168ZM76.3422 23.586C77.4482 23.586 78.0782 22.676 78.0782 21.612C78.0782 20.562 77.4482 19.652 76.3422 19.652C75.2362 19.652 74.6202 20.562 74.6202 21.612C74.6202 22.676 75.2362 23.586 76.3422 23.586ZM85.8093 25V24.146C85.3473 24.664 84.5353 25.168 83.4293 25.168C81.9453 25.168 81.2453 24.356 81.2453 23.04V18.238H83.0233V22.34C83.0233 23.278 83.5133 23.586 84.2693 23.586C84.9553 23.586 85.5013 23.208 85.8093 22.816V18.238H87.5873V25H85.8093ZM99.5147 25L98.9267 23.39H94.7547L94.1667 25H91.9827L95.5947 15.662H98.0867L101.685 25H99.5147ZM96.8407 17.384L95.2867 21.668H98.3807L96.8407 17.384ZM102.505 25V18.238H104.283V19.162C104.759 18.56 105.599 18.084 106.439 18.084V19.82C106.313 19.792 106.145 19.778 105.949 19.778C105.361 19.778 104.577 20.1 104.283 20.534V25H102.505ZM107.116 21.612C107.116 19.652 108.558 18.07 110.616 18.07C112.632 18.07 114.004 19.582 114.004 21.794V22.186H108.978C109.09 23.04 109.776 23.754 110.924 23.754C111.554 23.754 112.296 23.502 112.73 23.082L113.514 24.23C112.828 24.86 111.778 25.168 110.728 25.168C108.67 25.168 107.116 23.782 107.116 21.612ZM110.616 19.484C109.51 19.484 109.034 20.31 108.95 20.982H112.282C112.24 20.338 111.792 19.484 110.616 19.484ZM115.01 24.02C115.01 23.404 115.528 22.886 116.144 22.886C116.76 22.886 117.278 23.404 117.278 24.02C117.278 24.636 116.76 25.154 116.144 25.154C115.528 25.154 115.01 24.636 115.01 24.02Z" fill="black"/>
</svg>