
<svg width="242" height="29" viewBox="0 0 242 29" fill="none" xmlns="http://www.w3.org/2000/svg">
<path d="M13.9639 1.89355C15.7675 3.68074 18.748 4.85746 21.9766 5.12793L21.9785 5.12891C23.5258 5.25696 25.0198 5.1679 26.3779 4.89355C26.8483 8.5522 26.2316 12.6455 24.3486 16.5498V16.5508C22.0219 21.3823 18.2695 24.875 14.2227 26.5693C14.1364 26.6054 14.0458 26.6221 13.9648 26.6221C13.8839 26.6221 13.7933 26.6054 13.707 26.5693C9.66022 24.875 5.90778 21.3823 3.58105 16.5508V16.5498L3.39355 16.1514C1.65741 12.368 1.09643 8.42792 1.55078 4.89355C2.90913 5.16804 4.40351 5.25699 5.95117 5.12891L5.95312 5.12793C9.18103 4.85749 12.1602 3.68021 13.9639 1.89355Z" fill="#CC0000" stroke="white" stroke-width="2.8"/>
<path d="M13.9648 0.358398C14.015 0.358416 14.064 0.380656 14.0967 0.425781V0.426758C15.4928 2.3413 18.5272 3.77197 22.0654 4.06836C23.8823 4.21876 25.6035 4.05058 27.0752 3.63184L27.0742 3.63086C27.1447 3.61116 27.2145 3.64154 27.252 3.69531L27.2773 3.75586C28.036 7.87914 27.4475 12.5759 25.3076 17.0127H25.3066C22.8756 22.0608 18.9381 25.7486 14.6338 27.5508C14.4205 27.6401 14.1903 27.6865 13.9648 27.6865C13.7394 27.6865 13.5092 27.64 13.2959 27.5508C9.12613 25.805 5.29975 22.2898 2.85449 17.4824L2.62207 17.0127L2.42676 16.5957C0.447374 12.2825 -0.083571 7.74936 0.651367 3.75488C0.668641 3.66559 0.761221 3.60529 0.854492 3.63086V3.63184C2.32603 4.05053 4.04663 4.2187 5.86328 4.06836H5.86426C9.40224 3.77196 12.4359 2.34117 13.832 0.426758L13.833 0.425781C13.8657 0.380601 13.9147 0.358398 13.9648 0.358398Z" stroke="black" stroke-width="0.672"/>
<path d="M15.1179 8.48614C15.1179 7.85929 14.605 7.34977 13.9748 7.34977C13.3442 7.34977 12.8316 7.85969 12.8316 8.48614C12.8316 9.01293 13.1945 9.45728 13.6847 9.58532V22.8059C13.6847 22.9654 13.8147 23.0946 13.9752 23.0946C14.1356 23.0946 14.2656 22.9654 14.2656 22.8059V9.58532C14.7558 9.45726 15.1187 9.01291 15.1187 8.48614H15.1179ZM13.9748 9.04552C13.6647 9.04552 13.4121 8.79439 13.4121 8.48614C13.4121 8.1779 13.6647 7.92677 13.9748 7.92677C14.2849 7.92677 14.5375 8.1779 14.5375 8.48614C14.5375 8.79439 14.2849 9.04552 13.9748 9.04552ZM17.2512 8.48614C17.2512 9.35607 16.9103 10.1738 16.2916 10.7892L16.0757 10.5728L15.8813 10.3813C16.3904 9.87521 16.6708 9.20232 16.6708 8.48652C16.6708 7.77071 16.3904 7.0979 15.8813 6.59174L16.0757 6.38492L16.2916 6.18381C16.9103 6.79878 17.2512 7.61699 17.2512 8.48689V8.48614ZM15.5326 10.0343C15.5326 10.0347 15.3311 9.82699 15.3311 9.82699L15.1223 9.62633C15.7548 8.99756 15.7548 7.97506 15.1223 7.34632L15.3242 7.13874L15.5326 6.93839C16.3915 7.79221 16.3915 9.1813 15.5326 10.0347V10.0343ZM12.0692 10.3808L11.8747 10.5728L11.6588 10.7888C11.0402 10.1738 10.6992 9.35559 10.6992 8.48569C10.6992 7.61577 11.0402 6.79801 11.6588 6.18262L11.8653 6.38493L12.0692 6.59055C11.5601 7.09662 11.2797 7.76952 11.2797 8.48532C11.2797 9.20112 11.5601 9.87394 12.0692 10.3801V10.3808ZM12.8286 9.62593L12.6201 9.82699L12.4182 10.0339C11.5593 9.18004 11.5593 7.79095 12.4182 6.93754C12.4217 6.93408 12.6263 7.1383 12.6263 7.1383C12.6263 7.1383 12.8286 7.33927 12.8286 7.34547C12.1961 7.97424 12.1961 8.99674 12.8286 9.62548V9.62593Z" fill="white"/>
<path d="M44.9689 20.5146H33.875V7.23828H44.9689V9.89354H37.473V12.2864H43.3698V15.2767H37.473V17.8593H44.9689V20.5146Z" fill="black"/>
<path d="M44.9643 7.23828H48.7622L52.0604 13.6868L55.3586 7.23828H59.1565L53.8594 17.0058V20.5146H50.2614V17.0058L44.9643 7.23828Z" fill="black"/>
<path d="M71.0484 20.5146H59.9545V7.23828H71.0484V9.89354H63.5525V12.2864H70.957V15.2767H63.5525V17.8593H71.0484V20.5146Z" fill="black"/>
<path d="M75.1415 20.5146H71.2436L76.5407 7.23828H80.5386L85.8357 20.5146H81.9378L81.0383 18.4617H76.041L75.1415 20.5146ZM76.9405 15.5192H80.1388L78.5396 11.2212L76.9405 15.5192Z" fill="black"/>
<path d="M98.4374 20.8072C97.9763 20.8072 92.3782 20.8072 89.7663 20.8072C88.4603 20.8072 87.5766 20.4134 86.9636 19.8318C86.3506 19.2501 86.0441 18.3398 86.0441 17.1007V11.0315C86.0441 9.70388 86.3573 8.74293 86.9836 8.14866C87.6233 7.54174 88.6427 7.23828 90.042 7.23828H98.4374L98.4109 9.89354H90.8415C90.042 9.89354 89.6422 10.2729 89.6422 11.0315V17.1007C89.6422 17.3915 89.7288 17.6254 89.902 17.8024C90.0886 17.9668 90.3351 18.049 90.6416 18.049C92.1741 18.049 93.5734 18.0174 94.8393 17.9541V15.204H92.2408V12.1332H98.4374V20.8072Z" fill="black"/>
<path d="M104.038 17.8593H111.334V20.5146H100.44V7.23828H104.038V17.8593Z" fill="black"/>
<path d="M123.832 20.5146H112.738V7.23828H123.832V9.89354H116.336V12.454H122.233V15.1092H116.336V17.8593H123.832V20.5146Z" fill="black"/>
<line x1="135.846" y1="1.96701" x2="135.846" y2="26.0781" stroke="black" stroke-width="0.777778" stroke-linecap="round"/>
<path d="M145.573 11.0225V2.91024H148.6C149.152 2.91024 149.638 3.01187 150.059 3.21513C150.488 3.41113 150.822 3.7015 151.061 4.08624C151.301 4.46372 151.42 4.92468 151.42 5.46913C151.42 6.00631 151.297 6.46728 151.05 6.85202C150.811 7.2295 150.48 7.51987 150.059 7.72313C149.638 7.92639 149.152 8.02802 148.6 8.02802H147.054V11.0225H145.573ZM147.054 6.72135H148.622C148.891 6.72135 149.123 6.67053 149.319 6.56891C149.515 6.46002 149.667 6.3112 149.776 6.12246C149.885 5.93372 149.94 5.71594 149.94 5.46913C149.94 5.21505 149.885 4.99728 149.776 4.81579C149.667 4.62705 149.515 4.48187 149.319 4.38024C149.123 4.27135 148.891 4.21691 148.622 4.21691H147.054V6.72135ZM152.514 11.0225V5.0989H153.853V6.41646L153.744 6.22046C153.882 5.77765 154.097 5.46913 154.387 5.2949C154.685 5.12068 155.04 5.03357 155.454 5.03357H155.802V6.29668H155.291C154.884 6.29668 154.558 6.42372 154.311 6.67779C154.064 6.92461 153.94 7.27305 153.94 7.72313V11.0225H152.514ZM159.396 11.1531C158.786 11.1531 158.253 11.0152 157.795 10.7393C157.338 10.4635 156.982 10.0896 156.728 9.61779C156.474 9.14594 156.347 8.62328 156.347 8.04979C156.347 7.45453 156.474 6.92824 156.728 6.47091C156.99 6.00631 157.342 5.63972 157.785 5.37113C158.235 5.10253 158.735 4.96824 159.287 4.96824C159.752 4.96824 160.158 5.04446 160.507 5.1969C160.862 5.34935 161.164 5.55987 161.411 5.82846C161.657 6.09705 161.846 6.40557 161.977 6.75402C162.107 7.0952 162.173 7.46542 162.173 7.86468C162.173 7.96631 162.165 8.07157 162.151 8.18046C162.144 8.28935 162.126 8.38372 162.097 8.46357H157.523V7.37468H161.291L160.616 7.88646C160.681 7.55253 160.663 7.25491 160.561 6.99357C160.467 6.73224 160.307 6.52535 160.082 6.37291C159.864 6.22046 159.599 6.14424 159.287 6.14424C158.99 6.14424 158.725 6.22046 158.492 6.37291C158.26 6.51809 158.082 6.73587 157.959 7.02624C157.843 7.30935 157.799 7.65416 157.828 8.06068C157.799 8.42365 157.846 8.74668 157.97 9.02979C158.1 9.30565 158.289 9.51979 158.536 9.67224C158.79 9.82468 159.08 9.90091 159.407 9.90091C159.734 9.90091 160.009 9.83194 160.235 9.69402C160.467 9.55609 160.648 9.37098 160.779 9.13868L161.933 9.70491C161.817 9.98802 161.636 10.2385 161.389 10.4562C161.142 10.674 160.848 10.8446 160.507 10.968C160.173 11.0914 159.803 11.1531 159.396 11.1531ZM164.934 11.0225L162.603 5.0989H164.16L165.848 9.75935H165.271L166.97 5.0989H168.527L166.197 11.0225H164.934ZM172.018 11.1531C171.408 11.1531 170.875 11.0152 170.418 10.7393C169.96 10.4635 169.605 10.0896 169.35 9.61779C169.096 9.14594 168.969 8.62328 168.969 8.04979C168.969 7.45453 169.096 6.92824 169.35 6.47091C169.612 6.00631 169.964 5.63972 170.407 5.37113C170.857 5.10253 171.358 4.96824 171.909 4.96824C172.374 4.96824 172.78 5.04446 173.129 5.1969C173.485 5.34935 173.786 5.55987 174.033 5.82846C174.28 6.09705 174.468 6.40557 174.599 6.75402C174.73 7.0952 174.795 7.46542 174.795 7.86468C174.795 7.96631 174.788 8.07157 174.773 8.18046C174.766 8.28935 174.748 8.38372 174.719 8.46357H170.145V7.37468H173.913L173.238 7.88646C173.303 7.55253 173.285 7.25491 173.183 6.99357C173.089 6.73224 172.929 6.52535 172.704 6.37291C172.486 6.22046 172.222 6.14424 171.909 6.14424C171.612 6.14424 171.347 6.22046 171.114 6.37291C170.882 6.51809 170.704 6.73587 170.581 7.02624C170.465 7.30935 170.421 7.65416 170.45 8.06068C170.421 8.42365 170.468 8.74668 170.592 9.02979C170.722 9.30565 170.911 9.51979 171.158 9.67224C171.412 9.82468 171.702 9.90091 172.029 9.90091C172.356 9.90091 172.632 9.83194 172.857 9.69402C173.089 9.55609 173.27 9.37098 173.401 9.13868L174.555 9.70491C174.439 9.98802 174.258 10.2385 174.011 10.4562C173.764 10.674 173.47 10.8446 173.129 10.968C172.795 11.0914 172.425 11.1531 172.018 11.1531ZM175.876 11.0225V5.0989H177.216V6.26402L177.107 6.05713C177.245 5.70142 177.47 5.43283 177.782 5.25135C178.101 5.06261 178.471 4.96824 178.892 4.96824C179.328 4.96824 179.713 5.06261 180.047 5.25135C180.388 5.44009 180.653 5.70505 180.842 6.04624C181.03 6.38016 181.125 6.76853 181.125 7.21135V11.0225H179.698V7.54891C179.698 7.28757 179.647 7.06253 179.546 6.87379C179.444 6.68505 179.303 6.53987 179.121 6.43824C178.947 6.32935 178.74 6.2749 178.5 6.2749C178.268 6.2749 178.061 6.32935 177.88 6.43824C177.698 6.53987 177.557 6.68505 177.455 6.87379C177.354 7.06253 177.303 7.28757 177.303 7.54891V11.0225H175.876ZM185.031 11.0878C184.363 11.0878 183.844 10.9063 183.474 10.5433C183.111 10.1731 182.93 9.65409 182.93 8.98624V6.37291H181.906V5.0989H182.015C182.305 5.0989 182.531 5.02268 182.69 4.87024C182.85 4.71779 182.93 4.49639 182.93 4.20602V3.74868H184.356V5.0989H185.717V6.37291H184.356V8.91002C184.356 9.10602 184.389 9.27298 184.454 9.41091C184.527 9.54883 184.636 9.65409 184.781 9.72668C184.933 9.79928 185.126 9.83557 185.358 9.83557C185.409 9.83557 185.467 9.83194 185.532 9.82468C185.605 9.81742 185.674 9.81016 185.739 9.80291V11.0225C185.637 11.037 185.521 11.0515 185.391 11.066C185.26 11.0805 185.14 11.0878 185.031 11.0878ZM186.829 11.0225V5.0989H188.255V11.0225H186.829ZM186.829 4.43468V2.91024H188.255V4.43468H186.829ZM189.572 11.0225V5.0989H190.912V6.26402L190.803 6.05713C190.941 5.70142 191.166 5.43283 191.478 5.25135C191.797 5.06261 192.168 4.96824 192.589 4.96824C193.024 4.96824 193.409 5.06261 193.743 5.25135C194.084 5.44009 194.349 5.70505 194.538 6.04624C194.727 6.38016 194.821 6.76853 194.821 7.21135V11.0225H193.394V7.54891C193.394 7.28757 193.344 7.06253 193.242 6.87379C193.14 6.68505 192.999 6.53987 192.817 6.43824C192.643 6.32935 192.436 6.2749 192.197 6.2749C191.964 6.2749 191.757 6.32935 191.576 6.43824C191.394 6.53987 191.253 6.68505 191.151 6.87379C191.05 7.06253 190.999 7.28757 190.999 7.54891V11.0225H189.572ZM198.902 13.418C198.459 13.418 198.049 13.3454 197.671 13.2002C197.294 13.0551 196.967 12.8518 196.691 12.5905C196.423 12.3364 196.227 12.0351 196.103 11.6867L197.432 11.1858C197.519 11.4616 197.689 11.6831 197.944 11.85C198.205 12.0242 198.524 12.1113 198.902 12.1113C199.192 12.1113 199.446 12.0569 199.664 11.948C199.889 11.8391 200.063 11.6794 200.187 11.4689C200.31 11.2656 200.372 11.0188 200.372 10.7285V9.37824L200.644 9.70491C200.441 10.0606 200.168 10.3292 199.827 10.5107C199.486 10.6922 199.098 10.7829 198.662 10.7829C198.11 10.7829 197.617 10.6559 197.181 10.4018C196.746 10.1477 196.405 9.79928 196.158 9.35646C195.911 8.91365 195.788 8.41639 195.788 7.86468C195.788 7.30572 195.911 6.80846 196.158 6.37291C196.405 5.93735 196.742 5.59616 197.17 5.34935C197.599 5.09528 198.085 4.96824 198.63 4.96824C199.072 4.96824 199.461 5.06261 199.795 5.25135C200.136 5.43283 200.419 5.69779 200.644 6.04624L200.448 6.40557V5.0989H201.798V10.7285C201.798 11.2439 201.671 11.7048 201.417 12.1113C201.17 12.5179 200.829 12.8373 200.394 13.0696C199.965 13.3019 199.468 13.418 198.902 13.418ZM198.836 9.46535C199.141 9.46535 199.406 9.40002 199.631 9.26935C199.864 9.13142 200.045 8.94268 200.176 8.70313C200.306 8.46357 200.372 8.18772 200.372 7.87557C200.372 7.57068 200.303 7.29846 200.165 7.0589C200.034 6.81209 199.853 6.61972 199.62 6.48179C199.395 6.34387 199.134 6.2749 198.836 6.2749C198.539 6.2749 198.27 6.34387 198.031 6.48179C197.791 6.61972 197.602 6.81209 197.464 7.0589C197.334 7.29846 197.268 7.57068 197.268 7.87557C197.268 8.18046 197.334 8.45268 197.464 8.69224C197.602 8.93179 197.787 9.12053 198.02 9.25846C198.259 9.39639 198.532 9.46535 198.836 9.46535ZM205.185 11.0225V2.91024H210.597V4.21691H206.666V6.46002H210.107V7.76668H206.666V11.0225H205.185ZM212.998 11.1531C212.584 11.1531 212.225 11.0842 211.92 10.9462C211.615 10.8083 211.379 10.6123 211.212 10.3582C211.045 10.0969 210.962 9.79565 210.962 9.45446C210.962 9.12779 211.034 8.83742 211.18 8.58335C211.325 8.32202 211.55 8.10424 211.855 7.93002C212.16 7.75579 212.544 7.63239 213.009 7.55979L214.947 7.24402V8.33291L213.281 8.61602C212.998 8.66683 212.787 8.75757 212.65 8.88824C212.512 9.01891 212.443 9.1895 212.443 9.40002C212.443 9.60328 212.519 9.76661 212.671 9.89002C212.831 10.0062 213.027 10.0642 213.259 10.0642C213.557 10.0642 213.818 10.0025 214.043 9.87913C214.276 9.74846 214.453 9.57061 214.577 9.34557C214.708 9.12053 214.773 8.87372 214.773 8.60513V7.08068C214.773 6.82661 214.671 6.61609 214.468 6.44913C214.272 6.2749 214.011 6.18779 213.684 6.18779C213.379 6.18779 213.107 6.27128 212.867 6.43824C212.635 6.59794 212.464 6.81209 212.356 7.08068L211.19 6.51446C211.307 6.20231 211.488 5.93372 211.735 5.70868C211.989 5.47639 212.287 5.2949 212.628 5.16424C212.969 5.03357 213.339 4.96824 213.738 4.96824C214.225 4.96824 214.653 5.05898 215.023 5.24046C215.394 5.41468 215.68 5.6615 215.884 5.9809C216.094 6.29305 216.199 6.65965 216.199 7.08068V11.0225H214.849V10.0098L215.154 9.98802C215.002 10.2421 214.82 10.4562 214.61 10.6305C214.399 10.7974 214.159 10.9281 213.891 11.0225C213.622 11.1096 213.325 11.1531 212.998 11.1531ZM217.518 11.0225V2.77957H218.944V11.0225H217.518ZM220.261 11.0225V2.77957H221.688V11.0225H220.261ZM225.259 11.1531C224.627 11.1531 224.075 11.0043 223.604 10.7067C223.139 10.4018 222.82 9.99165 222.645 9.47624L223.712 8.96446C223.865 9.29839 224.075 9.55972 224.344 9.74846C224.62 9.9372 224.925 10.0316 225.259 10.0316C225.52 10.0316 225.727 9.9735 225.879 9.85735C226.032 9.7412 226.108 9.58876 226.108 9.40002C226.108 9.28387 226.075 9.1895 226.01 9.11691C225.952 9.03705 225.869 8.97172 225.76 8.92091C225.658 8.86283 225.545 8.81565 225.422 8.77935L224.453 8.50713C223.952 8.36194 223.571 8.14053 223.31 7.8429C223.056 7.54528 222.928 7.1932 222.928 6.78668C222.928 6.42372 223.019 6.10794 223.201 5.83935C223.389 5.5635 223.647 5.34935 223.974 5.1969C224.308 5.04446 224.689 4.96824 225.117 4.96824C225.676 4.96824 226.17 5.10253 226.598 5.37113C227.026 5.63972 227.331 6.0172 227.513 6.50357L226.424 7.01535C226.322 6.74676 226.152 6.53261 225.912 6.37291C225.673 6.2132 225.404 6.13335 225.106 6.13335C224.867 6.13335 224.678 6.18779 224.54 6.29668C224.402 6.40557 224.333 6.54713 224.333 6.72135C224.333 6.83024 224.362 6.92461 224.42 7.00446C224.478 7.08431 224.558 7.14965 224.66 7.20046C224.769 7.25128 224.892 7.29846 225.03 7.34202L225.977 7.62513C226.464 7.77031 226.838 7.98809 227.099 8.27846C227.368 8.56883 227.502 8.92453 227.502 9.34557C227.502 9.70128 227.407 10.0171 227.219 10.2929C227.03 10.5615 226.769 10.772 226.435 10.9245C226.101 11.0769 225.709 11.1531 225.259 11.1531ZM148.47 25.1531C147.954 25.1531 147.475 25.0588 147.032 24.87C146.597 24.6813 146.219 24.4199 145.9 24.086C145.588 23.7448 145.359 23.3492 145.214 22.8991L146.444 22.3656C146.64 22.8302 146.923 23.1968 147.294 23.4653C147.664 23.7267 148.081 23.8573 148.546 23.8573C148.807 23.8573 149.032 23.8174 149.221 23.7376C149.417 23.6505 149.566 23.5343 149.667 23.3891C149.776 23.2439 149.831 23.0697 149.831 22.8665C149.831 22.6269 149.758 22.4309 149.613 22.2785C149.475 22.1188 149.264 21.9953 148.981 21.9082L147.424 21.4073C146.793 21.2113 146.317 20.9173 145.998 20.5253C145.678 20.1333 145.519 19.6724 145.519 19.1425C145.519 18.6779 145.631 18.2677 145.856 17.912C146.088 17.5563 146.408 17.2805 146.814 17.0845C147.228 16.8812 147.7 16.7796 148.23 16.7796C148.716 16.7796 149.163 16.8667 149.569 17.0409C149.976 17.2079 150.324 17.4438 150.615 17.7487C150.912 18.0463 151.134 18.3984 151.279 18.8049L150.059 19.3493C149.9 18.9428 149.66 18.6307 149.341 18.4129C149.021 18.1879 148.651 18.0753 148.23 18.0753C147.983 18.0753 147.765 18.1189 147.577 18.206C147.388 18.2859 147.239 18.402 147.13 18.5545C147.029 18.6996 146.978 18.8739 146.978 19.0771C146.978 19.3022 147.05 19.5018 147.196 19.676C147.341 19.843 147.562 19.9736 147.86 20.068L149.352 20.5362C149.998 20.7468 150.48 21.0371 150.8 21.4073C151.126 21.7776 151.29 22.2349 151.29 22.7793C151.29 23.2439 151.17 23.6541 150.93 24.0098C150.691 24.3655 150.361 24.645 149.94 24.8482C149.518 25.0515 149.028 25.1531 148.47 25.1531ZM154.247 25.1531C153.833 25.1531 153.474 25.0842 153.169 24.9462C152.864 24.8083 152.628 24.6123 152.461 24.3582C152.294 24.0969 152.211 23.7956 152.211 23.4545C152.211 23.1278 152.283 22.8374 152.428 22.5833C152.574 22.322 152.799 22.1042 153.104 21.93C153.408 21.7558 153.793 21.6324 154.258 21.5598L156.196 21.244V22.3329L154.53 22.616C154.247 22.6668 154.036 22.7576 153.898 22.8882C153.761 23.0189 153.692 23.1895 153.692 23.4C153.692 23.6033 153.768 23.7666 153.92 23.89C154.08 24.0062 154.276 24.0642 154.508 24.0642C154.806 24.0642 155.067 24.0025 155.292 23.8791C155.525 23.7485 155.702 23.5706 155.826 23.3456C155.956 23.1205 156.022 22.8737 156.022 22.6051V21.0807C156.022 20.8266 155.92 20.6161 155.717 20.4491C155.521 20.2749 155.26 20.1878 154.933 20.1878C154.628 20.1878 154.356 20.2713 154.116 20.4382C153.884 20.5979 153.713 20.8121 153.604 21.0807L152.439 20.5145C152.556 20.2023 152.737 19.9337 152.984 19.7087C153.238 19.4764 153.536 19.2949 153.877 19.1642C154.218 19.0336 154.588 18.9682 154.987 18.9682C155.474 18.9682 155.902 19.059 156.272 19.2405C156.642 19.4147 156.929 19.6615 157.132 19.9809C157.343 20.2931 157.448 20.6596 157.448 21.0807V25.0225H156.098V24.0098L156.403 23.988C156.25 24.2421 156.069 24.4562 155.858 24.6305C155.648 24.7974 155.408 24.9281 155.14 25.0225C154.871 25.1096 154.574 25.1531 154.247 25.1531ZM160.446 25.0225L158.116 19.0989H159.673L161.361 23.7593H160.784L162.482 19.0989H164.039L161.709 25.0225H160.446ZM164.828 25.0225V19.0989H166.254V25.0225H164.828ZM164.828 18.4347V16.9102H166.254V18.4347H164.828ZM167.571 25.0225V19.0989H168.911V20.264L168.802 20.0571C168.94 19.7014 169.165 19.4328 169.477 19.2513C169.796 19.0626 170.167 18.9682 170.588 18.9682C171.023 18.9682 171.408 19.0626 171.742 19.2513C172.083 19.4401 172.348 19.7051 172.537 20.0462C172.725 20.3802 172.82 20.7685 172.82 21.2113V25.0225H171.393V21.5489C171.393 21.2876 171.343 21.0625 171.241 20.8738C171.139 20.6851 170.998 20.5399 170.816 20.4382C170.642 20.3293 170.435 20.2749 170.196 20.2749C169.963 20.2749 169.756 20.3293 169.575 20.4382C169.393 20.5399 169.252 20.6851 169.15 20.8738C169.049 21.0625 168.998 21.2876 168.998 21.5489V25.0225H167.571ZM176.901 27.418C176.458 27.418 176.048 27.3454 175.67 27.2002C175.293 27.0551 174.966 26.8518 174.69 26.5905C174.422 26.3364 174.226 26.0351 174.102 25.6867L175.431 25.1858C175.518 25.4616 175.688 25.6831 175.942 25.85C176.204 26.0242 176.523 26.1113 176.901 26.1113C177.191 26.1113 177.445 26.0569 177.663 25.948C177.888 25.8391 178.062 25.6794 178.186 25.4689C178.309 25.2656 178.371 25.0188 178.371 24.7285V23.3782L178.643 23.7049C178.44 24.0606 178.167 24.3292 177.826 24.5107C177.485 24.6922 177.097 24.7829 176.661 24.7829C176.109 24.7829 175.616 24.6559 175.18 24.4018C174.745 24.1477 174.403 23.7993 174.157 23.3565C173.91 22.9136 173.786 22.4164 173.786 21.8647C173.786 21.3057 173.91 20.8085 174.157 20.3729C174.403 19.9373 174.741 19.5962 175.169 19.3493C175.598 19.0953 176.084 18.9682 176.628 18.9682C177.071 18.9682 177.46 19.0626 177.794 19.2513C178.135 19.4328 178.418 19.6978 178.643 20.0462L178.447 20.4056V19.0989H179.797V24.7285C179.797 25.2439 179.67 25.7048 179.416 26.1113C179.169 26.5179 178.828 26.8373 178.392 27.0696C177.964 27.3019 177.467 27.418 176.901 27.418ZM176.835 23.4653C177.14 23.4653 177.405 23.4 177.63 23.2693C177.863 23.1314 178.044 22.9427 178.175 22.7031C178.305 22.4636 178.371 22.1877 178.371 21.8756C178.371 21.5707 178.302 21.2985 178.164 21.0589C178.033 20.8121 177.852 20.6197 177.619 20.4818C177.394 20.3439 177.133 20.2749 176.835 20.2749C176.538 20.2749 176.269 20.3439 176.03 20.4818C175.79 20.6197 175.601 20.8121 175.463 21.0589C175.333 21.2985 175.267 21.5707 175.267 21.8756C175.267 22.1805 175.333 22.4527 175.463 22.6922C175.601 22.9318 175.786 23.1205 176.019 23.2585C176.258 23.3964 176.53 23.4653 176.835 23.4653ZM183.184 25.0225V16.9102H184.665V23.7158H188.139V25.0225H183.184ZM188.977 25.0225V19.0989H190.403V25.0225H188.977ZM188.977 18.4347V16.9102H190.403V18.4347H188.977ZM193.506 25.0225L191.176 19.0989H192.733L194.421 23.7593H193.844L195.542 19.0989H197.1L194.769 25.0225H193.506ZM200.591 25.1531C199.981 25.1531 199.448 25.0152 198.99 24.7393C198.533 24.4635 198.177 24.0896 197.923 23.6178C197.669 23.1459 197.542 22.6233 197.542 22.0498C197.542 21.4545 197.669 20.9282 197.923 20.4709C198.185 20.0063 198.537 19.6397 198.979 19.3711C199.429 19.1025 199.93 18.9682 200.482 18.9682C200.947 18.9682 201.353 19.0445 201.702 19.1969C202.057 19.3493 202.359 19.5599 202.605 19.8285C202.852 20.0971 203.041 20.4056 203.172 20.754C203.302 21.0952 203.368 21.4654 203.368 21.8647C203.368 21.9663 203.36 22.0716 203.346 22.1805C203.339 22.2893 203.32 22.3837 203.291 22.4636H198.718V21.3747H202.486L201.811 21.8865C201.876 21.5525 201.858 21.2549 201.756 20.9936C201.662 20.7322 201.502 20.5253 201.277 20.3729C201.059 20.2205 200.794 20.1442 200.482 20.1442C200.184 20.1442 199.919 20.2205 199.687 20.3729C199.455 20.5181 199.277 20.7359 199.154 21.0262C199.037 21.3093 198.994 21.6542 199.023 22.0607C198.994 22.4236 199.041 22.7467 199.165 23.0298C199.295 23.3056 199.484 23.5198 199.731 23.6722C199.985 23.8247 200.275 23.9009 200.602 23.9009C200.929 23.9009 201.204 23.8319 201.429 23.694C201.662 23.5561 201.843 23.371 201.974 23.1387L203.128 23.7049C203.012 23.988 202.83 24.2385 202.584 24.4562C202.337 24.674 202.043 24.8446 201.702 24.968C201.368 25.0914 200.997 25.1531 200.591 25.1531ZM206.703 25.1531C206.071 25.1531 205.52 25.0043 205.048 24.7067C204.583 24.4018 204.264 23.9916 204.09 23.4762L205.157 22.9645C205.309 23.2984 205.52 23.5597 205.788 23.7485C206.064 23.9372 206.369 24.0316 206.703 24.0316C206.964 24.0316 207.171 23.9735 207.324 23.8573C207.476 23.7412 207.552 23.5888 207.552 23.4C207.552 23.2839 207.52 23.1895 207.454 23.1169C207.396 23.0371 207.313 22.9717 207.204 22.9209C207.102 22.8628 206.99 22.8156 206.866 22.7793L205.897 22.5071C205.396 22.3619 205.015 22.1405 204.754 21.8429C204.5 21.5453 204.373 21.1932 204.373 20.7867C204.373 20.4237 204.463 20.1079 204.645 19.8393C204.834 19.5635 205.091 19.3493 205.418 19.1969C205.752 19.0445 206.133 18.9682 206.561 18.9682C207.12 18.9682 207.614 19.1025 208.042 19.3711C208.471 19.6397 208.775 20.0172 208.957 20.5036L207.868 21.0153C207.766 20.7468 207.596 20.5326 207.356 20.3729C207.117 20.2132 206.848 20.1333 206.551 20.1333C206.311 20.1333 206.122 20.1878 205.984 20.2967C205.846 20.4056 205.777 20.5471 205.777 20.7213C205.777 20.8302 205.806 20.9246 205.865 21.0045C205.923 21.0843 206.002 21.1496 206.104 21.2005C206.213 21.2513 206.336 21.2985 206.474 21.342L207.422 21.6251C207.908 21.7703 208.282 21.9881 208.543 22.2785C208.812 22.5688 208.946 22.9245 208.946 23.3456C208.946 23.7013 208.852 24.0171 208.663 24.2929C208.474 24.5615 208.213 24.772 207.879 24.9245C207.545 25.0769 207.153 25.1531 206.703 25.1531Z" fill="black"/>
</svg>
