           <svg class="hidden" aria-hidden="true" focusable="false" width="110" height="31" viewBox="0 0 110 31" fill="none" xmlns="http://www.w3.org/2000/svg">
           <path d="M0.860156 11V0.92H5.64816C6.39482 0.92 7.03416 1.05067 7.56616 1.312C8.10749 1.57333 8.52282 1.93733 8.81216 2.404C9.11082 2.87067 9.26016 3.41667 9.26016 4.042C9.26016 4.66733 9.11082 5.218 8.81216 5.694C8.51349 6.17 8.09349 6.54333 7.55216 6.814C7.02016 7.07533 6.38549 7.206 5.64816 7.206H2.56816V5.554H5.53616C6.03082 5.554 6.41349 5.41867 6.68416 5.148C6.96416 4.868 7.10416 4.504 7.10416 4.056C7.10416 3.608 6.96416 3.24867 6.68416 2.978C6.41349 2.70733 6.03082 2.572 5.53616 2.572H3.01616V11H0.860156ZM10.4064 11V3.86H12.4644V5.54H12.5064V11H10.4064ZM12.5064 7.276L12.3244 5.582C12.4924 4.97533 12.7677 4.51333 13.1504 4.196C13.5331 3.87867 14.0091 3.72 14.5784 3.72C14.7557 3.72 14.8864 3.73867 14.9704 3.776V5.736C14.9237 5.71733 14.8584 5.708 14.7744 5.708C14.6904 5.69867 14.5877 5.694 14.4664 5.694C13.7944 5.694 13.2997 5.81533 12.9824 6.058C12.6651 6.29133 12.5064 6.69733 12.5064 7.276ZM19.2352 11.14C18.4418 11.14 17.7512 10.986 17.1632 10.678C16.5752 10.3607 16.1178 9.922 15.7912 9.362C15.4738 8.802 15.3152 8.158 15.3152 7.43C15.3152 6.69267 15.4738 6.04867 15.7912 5.498C16.1178 4.938 16.5705 4.504 17.1492 4.196C17.7278 3.87867 18.3998 3.72 19.1652 3.72C19.9025 3.72 20.5418 3.86933 21.0832 4.168C21.6245 4.46667 22.0445 4.882 22.3432 5.414C22.6418 5.946 22.7912 6.57133 22.7912 7.29C22.7912 7.43933 22.7865 7.57933 22.7772 7.71C22.7678 7.83133 22.7538 7.948 22.7352 8.06H16.5472V6.674H21.0412L20.6772 6.926C20.6772 6.34733 20.5372 5.92267 20.2572 5.652C19.9865 5.372 19.6132 5.232 19.1372 5.232C18.5865 5.232 18.1572 5.41867 17.8492 5.792C17.5505 6.16533 17.4012 6.72533 17.4012 7.472C17.4012 8.2 17.5505 8.74133 17.8492 9.096C18.1572 9.45067 18.6145 9.628 19.2212 9.628C19.5572 9.628 19.8465 9.572 20.0892 9.46C20.3318 9.348 20.5138 9.166 20.6352 8.914H22.6092C22.3758 9.60467 21.9745 10.1507 21.4052 10.552C20.8452 10.944 20.1218 11.14 19.2352 11.14ZM25.6551 11L22.8411 3.86H25.0951L27.2931 10.524H26.1171L28.3011 3.86H30.4991L27.6851 11H25.6551ZM34.452 11.14C33.6586 11.14 32.968 10.986 32.38 10.678C31.792 10.3607 31.3346 9.922 31.008 9.362C30.6906 8.802 30.532 8.158 30.532 7.43C30.532 6.69267 30.6906 6.04867 31.008 5.498C31.3346 4.938 31.7873 4.504 32.366 4.196C32.9446 3.87867 33.6166 3.72 34.382 3.72C35.1193 3.72 35.7586 3.86933 36.3 4.168C36.8413 4.46667 37.2613 4.882 37.56 5.414C37.8586 5.946 38.008 6.57133 38.008 7.29C38.008 7.43933 38.0033 7.57933 37.994 7.71C37.9846 7.83133 37.9706 7.948 37.952 8.06H31.764V6.674H36.258L35.894 6.926C35.894 6.34733 35.754 5.92267 35.474 5.652C35.2033 5.372 34.83 5.232 34.354 5.232C33.8033 5.232 33.374 5.41867 33.066 5.792C32.7673 6.16533 32.618 6.72533 32.618 7.472C32.618 8.2 32.7673 8.74133 33.066 9.096C33.374 9.45067 33.8313 9.628 34.438 9.628C34.774 9.628 35.0633 9.572 35.306 9.46C35.5486 9.348 35.7306 9.166 35.852 8.914H37.826C37.5926 9.60467 37.1913 10.1507 36.622 10.552C36.062 10.944 35.3386 11.14 34.452 11.14ZM39.131 11V3.86H41.189V5.54H41.231V11H39.131ZM44.101 11V6.576C44.101 6.184 43.9983 5.89 43.793 5.694C43.597 5.498 43.3077 5.4 42.925 5.4C42.5983 5.4 42.3043 5.47467 42.043 5.624C41.791 5.77333 41.5903 5.97867 41.441 6.24C41.301 6.50133 41.231 6.80933 41.231 7.164L41.049 5.442C41.2823 4.91933 41.623 4.504 42.071 4.196C42.5283 3.87867 43.0883 3.72 43.751 3.72C44.5443 3.72 45.151 3.944 45.571 4.392C45.991 4.83067 46.201 5.42333 46.201 6.17V11H44.101ZM50.8862 11.154C49.9715 11.154 49.2902 10.9347 48.8422 10.496C48.4035 10.048 48.1842 9.37133 48.1842 8.466V2.264L50.2842 1.48V8.536C50.2842 8.85333 50.3729 9.09133 50.5502 9.25C50.7275 9.40867 51.0029 9.488 51.3762 9.488C51.5162 9.488 51.6469 9.474 51.7682 9.446C51.8895 9.418 52.0109 9.38533 52.1322 9.348V10.944C52.0109 11.0093 51.8382 11.0607 51.6142 11.098C51.3995 11.1353 51.1569 11.154 50.8862 11.154ZM46.8542 5.456V3.86H52.1322V5.456H46.8542ZM53.3224 11V3.86H55.4224V11H53.3224ZM53.2524 2.908V0.64H55.4924V2.908H53.2524ZM57.0959 11V3.86H59.1539V5.54H59.1959V11H57.0959ZM62.0659 11V6.576C62.0659 6.184 61.9632 5.89 61.7579 5.694C61.5619 5.498 61.2725 5.4 60.8899 5.4C60.5632 5.4 60.2692 5.47467 60.0079 5.624C59.7559 5.77333 59.5552 5.97867 59.4059 6.24C59.2659 6.50133 59.1959 6.80933 59.1959 7.164L59.0139 5.442C59.2472 4.91933 59.5879 4.504 60.0359 4.196C60.4932 3.87867 61.0532 3.72 61.7159 3.72C62.5092 3.72 63.1159 3.944 63.5359 4.392C63.9559 4.83067 64.1659 5.42333 64.1659 6.17V11H62.0659ZM69.0265 14.01C68.0372 14.01 67.2298 13.8 66.6045 13.38C65.9885 12.96 65.6245 12.3907 65.5125 11.672H67.5005C67.5752 11.8493 67.7338 11.9847 67.9765 12.078C68.2285 12.1713 68.5458 12.218 68.9285 12.218C69.5632 12.218 70.0252 12.0967 70.3145 11.854C70.6038 11.6113 70.7485 11.2333 70.7485 10.72V9.166L70.8605 9.194C70.7672 9.71667 70.4965 10.132 70.0485 10.44C69.6005 10.7387 69.0452 10.888 68.3825 10.888C67.7478 10.888 67.1925 10.7433 66.7165 10.454C66.2498 10.1553 65.8858 9.74 65.6245 9.208C65.3632 8.676 65.2325 8.05067 65.2325 7.332C65.2325 6.604 65.3678 5.96933 65.6385 5.428C65.9092 4.88667 66.2872 4.46667 66.7725 4.168C67.2672 3.86933 67.8412 3.72 68.4945 3.72C69.1665 3.72 69.7125 3.87867 70.1325 4.196C70.5618 4.51333 70.8138 4.94733 70.8885 5.498L70.7905 5.512V3.86H72.8485V10.692C72.8485 11.7187 72.5078 12.526 71.8265 13.114C71.1452 13.7113 70.2118 14.01 69.0265 14.01ZM69.1105 9.278C69.6052 9.278 70.0065 9.11 70.3145 8.774C70.6225 8.42867 70.7765 7.93867 70.7765 7.304C70.7765 6.66933 70.6178 6.184 70.3005 5.848C69.9925 5.50267 69.5865 5.33 69.0825 5.33C68.5972 5.33 68.1958 5.50267 67.8785 5.848C67.5705 6.19333 67.4165 6.68333 67.4165 7.318C67.4165 7.95267 67.5705 8.438 67.8785 8.774C68.1958 9.11 68.6065 9.278 69.1105 9.278ZM77.0535 11V0.92H79.2095V11H77.0535ZM78.0615 7.094V5.442H83.8435V7.094H78.0615ZM78.0615 2.572V0.92H84.1655V2.572H78.0615ZM89.3438 11C89.2878 10.7947 89.2458 10.5753 89.2178 10.342C89.1991 10.1087 89.1898 9.838 89.1898 9.53H89.1338V6.156C89.1338 5.86667 89.0358 5.64267 88.8398 5.484C88.6531 5.316 88.3731 5.232 87.9998 5.232C87.6451 5.232 87.3604 5.29267 87.1458 5.414C86.9404 5.53533 86.8051 5.71267 86.7398 5.946H84.7378C84.8311 5.302 85.1624 4.77 85.7318 4.35C86.3011 3.93 87.0804 3.72 88.0698 3.72C89.0964 3.72 89.8804 3.94867 90.4218 4.406C90.9631 4.86333 91.2338 5.52133 91.2338 6.38V9.53C91.2338 9.76333 91.2478 10.0013 91.2758 10.244C91.3131 10.4773 91.3691 10.7293 91.4438 11H89.3438ZM86.8518 11.14C86.1424 11.14 85.5778 10.9627 85.1578 10.608C84.7378 10.244 84.5278 9.76333 84.5278 9.166C84.5278 8.50333 84.7751 7.97133 85.2698 7.57C85.7738 7.15933 86.4738 6.89333 87.3698 6.772L89.4558 6.478V7.696L87.7198 7.962C87.3464 8.018 87.0711 8.12067 86.8938 8.27C86.7164 8.41933 86.6278 8.62467 86.6278 8.886C86.6278 9.11933 86.7118 9.29667 86.8798 9.418C87.0478 9.53933 87.2718 9.6 87.5518 9.6C87.9904 9.6 88.3638 9.48333 88.6718 9.25C88.9798 9.00733 89.1338 8.72733 89.1338 8.41L89.3298 9.53C89.1244 10.062 88.8118 10.4633 88.3918 10.734C87.9718 11.0047 87.4584 11.14 86.8518 11.14ZM92.8478 11V0.92H94.9478V11H92.8478ZM96.6213 11V0.92H98.7213V11H96.6213ZM103.279 11.14C102.233 11.14 101.403 10.93 100.787 10.51C100.171 10.09 99.8347 9.51133 99.7787 8.774H101.655C101.701 9.09133 101.86 9.334 102.131 9.502C102.411 9.66067 102.793 9.74 103.279 9.74C103.717 9.74 104.035 9.67933 104.231 9.558C104.436 9.42733 104.539 9.24533 104.539 9.012C104.539 8.83467 104.478 8.69933 104.357 8.606C104.245 8.50333 104.035 8.41933 103.727 8.354L102.579 8.116C101.729 7.93867 101.104 7.67267 100.703 7.318C100.301 6.954 100.101 6.48733 100.101 5.918C100.101 5.22733 100.367 4.69067 100.899 4.308C101.431 3.916 102.173 3.72 103.125 3.72C104.067 3.72 104.819 3.91133 105.379 4.294C105.939 4.66733 106.247 5.19 106.303 5.862H104.427C104.389 5.61933 104.259 5.43733 104.035 5.316C103.811 5.18533 103.493 5.12 103.083 5.12C102.709 5.12 102.429 5.176 102.243 5.288C102.065 5.39067 101.977 5.54 101.977 5.736C101.977 5.904 102.051 6.03933 102.201 6.142C102.35 6.23533 102.597 6.31933 102.943 6.394L104.231 6.66C104.949 6.80933 105.491 7.08933 105.855 7.5C106.228 7.90133 106.415 8.37733 106.415 8.928C106.415 9.628 106.139 10.174 105.589 10.566C105.047 10.9487 104.277 11.14 103.279 11.14ZM107.272 13.352V12.33C107.711 12.1993 107.996 12.008 108.126 11.756C108.257 11.504 108.322 11.1773 108.322 10.776L109.176 11H107.244V8.69H109.554V10.328C109.554 11.0653 109.382 11.7 109.036 12.232C108.691 12.764 108.103 13.1373 107.272 13.352ZM5.00416 28.126C3.69749 28.126 2.65216 27.8367 1.86816 27.258C1.08416 26.67 0.626823 25.844 0.496156 24.78H2.56816C2.63349 25.3213 2.89482 25.7507 3.35216 26.068C3.80949 26.376 4.39282 26.53 5.10216 26.53C5.68082 26.53 6.12416 26.4273 6.43216 26.222C6.74949 26.0167 6.90816 25.7413 6.90816 25.396C6.90816 25.0693 6.81482 24.808 6.62816 24.612C6.44149 24.4067 6.11949 24.2433 5.66216 24.122L3.78616 23.604C2.82482 23.3333 2.12016 22.9647 1.67216 22.498C1.23349 22.022 1.01416 21.4293 1.01416 20.72C1.01416 20.1133 1.16816 19.5907 1.47616 19.152C1.79349 18.704 2.23682 18.3633 2.80616 18.13C3.37549 17.8873 4.04282 17.766 4.80816 17.766C5.98416 17.766 6.92216 18.046 7.62216 18.606C8.32216 19.1567 8.71882 19.8893 8.81216 20.804H6.74016C6.64682 20.3093 6.41816 19.9453 6.05416 19.712C5.69949 19.4787 5.24216 19.362 4.68216 19.362C4.19682 19.362 3.80949 19.4553 3.52016 19.642C3.23082 19.8287 3.08616 20.0807 3.08616 20.398C3.08616 20.6407 3.16549 20.8647 3.32416 21.07C3.48282 21.266 3.81416 21.434 4.31816 21.574L6.19416 22.092C7.18349 22.3627 7.89282 22.736 8.32216 23.212C8.76082 23.6787 8.98016 24.2713 8.98016 24.99C8.98016 25.998 8.63016 26.7727 7.93016 27.314C7.23016 27.8553 6.25482 28.126 5.00416 28.126ZM14.627 28C14.571 27.7947 14.529 27.5753 14.501 27.342C14.4823 27.1087 14.473 26.838 14.473 26.53H14.417V23.156C14.417 22.8667 14.319 22.6427 14.123 22.484C13.9363 22.316 13.6563 22.232 13.283 22.232C12.9283 22.232 12.6436 22.2927 12.429 22.414C12.2236 22.5353 12.0883 22.7127 12.023 22.946H10.021C10.1143 22.302 10.4456 21.77 11.015 21.35C11.5843 20.93 12.3636 20.72 13.353 20.72C14.3796 20.72 15.1636 20.9487 15.705 21.406C16.2463 21.8633 16.517 22.5213 16.517 23.38V26.53C16.517 26.7633 16.531 27.0013 16.559 27.244C16.5963 27.4773 16.6523 27.7293 16.727 28H14.627ZM12.135 28.14C11.4256 28.14 10.861 27.9627 10.441 27.608C10.021 27.244 9.81097 26.7633 9.81097 26.166C9.81097 25.5033 10.0583 24.9713 10.553 24.57C11.057 24.1593 11.757 23.8933 12.653 23.772L14.739 23.478V24.696L13.003 24.962C12.6296 25.018 12.3543 25.1207 12.177 25.27C11.9996 25.4193 11.911 25.6247 11.911 25.886C11.911 26.1193 11.995 26.2967 12.163 26.418C12.331 26.5393 12.555 26.6 12.835 26.6C13.2736 26.6 13.647 26.4833 13.955 26.25C14.263 26.0073 14.417 25.7273 14.417 25.41L14.613 26.53C14.4076 27.062 14.095 27.4633 13.675 27.734C13.255 28.0047 12.7416 28.14 12.135 28.14ZM19.6122 28L16.7982 20.86H19.0522L21.2502 27.524H20.0742L22.2582 20.86H24.4562L21.6422 28H19.6122ZM25.1447 28V20.86H27.2447V28H25.1447ZM25.0747 19.908V17.64H27.3147V19.908H25.0747ZM28.9181 28V20.86H30.9761V22.54H31.0181V28H28.9181ZM33.8881 28V23.576C33.8881 23.184 33.7855 22.89 33.5801 22.694C33.3841 22.498 33.0948 22.4 32.7121 22.4C32.3855 22.4 32.0915 22.4747 31.8301 22.624C31.5781 22.7733 31.3775 22.9787 31.2281 23.24C31.0881 23.5013 31.0181 23.8093 31.0181 24.164L30.8361 22.442C31.0695 21.9193 31.4101 21.504 31.8581 21.196C32.3155 20.8787 32.8755 20.72 33.5381 20.72C34.3315 20.72 34.9381 20.944 35.3581 21.392C35.7781 21.8307 35.9881 22.4233 35.9881 23.17V28H33.8881ZM40.8488 31.01C39.8594 31.01 39.0521 30.8 38.4268 30.38C37.8108 29.96 37.4468 29.3907 37.3348 28.672H39.3228C39.3974 28.8493 39.5561 28.9847 39.7988 29.078C40.0508 29.1713 40.3681 29.218 40.7508 29.218C41.3854 29.218 41.8474 29.0967 42.1368 28.854C42.4261 28.6113 42.5708 28.2333 42.5708 27.72V26.166L42.6828 26.194C42.5894 26.7167 42.3188 27.132 41.8708 27.44C41.4228 27.7387 40.8674 27.888 40.2048 27.888C39.5701 27.888 39.0148 27.7433 38.5388 27.454C38.0721 27.1553 37.7081 26.74 37.4468 26.208C37.1854 25.676 37.0548 25.0507 37.0548 24.332C37.0548 23.604 37.1901 22.9693 37.4608 22.428C37.7314 21.8867 38.1094 21.4667 38.5948 21.168C39.0894 20.8693 39.6634 20.72 40.3167 20.72C40.9888 20.72 41.5348 20.8787 41.9548 21.196C42.3841 21.5133 42.6361 21.9473 42.7108 22.498L42.6128 22.512V20.86H44.6708V27.692C44.6708 28.7187 44.3301 29.526 43.6488 30.114C42.9674 30.7113 42.0341 31.01 40.8488 31.01ZM40.9328 26.278C41.4274 26.278 41.8288 26.11 42.1368 25.774C42.4448 25.4287 42.5988 24.9387 42.5988 24.304C42.5988 23.6693 42.4401 23.184 42.1228 22.848C41.8148 22.5027 41.4088 22.33 40.9048 22.33C40.4194 22.33 40.0181 22.5027 39.7008 22.848C39.3928 23.1933 39.2388 23.6833 39.2388 24.318C39.2388 24.9527 39.3928 25.438 39.7008 25.774C40.0181 26.11 40.4288 26.278 40.9328 26.278ZM48.8758 28V17.92H51.0318V28H48.8758ZM49.8838 28V26.348H55.8758V28H49.8838ZM56.9045 28V20.86H59.0045V28H56.9045ZM56.8345 19.908V17.64H59.0745V19.908H56.8345ZM62.5008 28L59.6868 20.86H61.9408L64.1388 27.524H62.9628L65.1468 20.86H67.3448L64.5308 28H62.5008ZM71.2977 28.14C70.5043 28.14 69.8137 27.986 69.2257 27.678C68.6377 27.3607 68.1803 26.922 67.8537 26.362C67.5363 25.802 67.3777 25.158 67.3777 24.43C67.3777 23.6927 67.5363 23.0487 67.8537 22.498C68.1803 21.938 68.633 21.504 69.2117 21.196C69.7903 20.8787 70.4623 20.72 71.2277 20.72C71.965 20.72 72.6043 20.8693 73.1457 21.168C73.687 21.4667 74.107 21.882 74.4057 22.414C74.7043 22.946 74.8537 23.5713 74.8537 24.29C74.8537 24.4393 74.849 24.5793 74.8397 24.71C74.8303 24.8313 74.8163 24.948 74.7977 25.06H68.6097V23.674H73.1037L72.7397 23.926C72.7397 23.3473 72.5997 22.9227 72.3197 22.652C72.049 22.372 71.6757 22.232 71.1997 22.232C70.649 22.232 70.2197 22.4187 69.9117 22.792C69.613 23.1653 69.4637 23.7253 69.4637 24.472C69.4637 25.2 69.613 25.7413 69.9117 26.096C70.2197 26.4507 70.677 26.628 71.2837 26.628C71.6197 26.628 71.909 26.572 72.1517 26.46C72.3943 26.348 72.5763 26.166 72.6977 25.914H74.6717C74.4383 26.6047 74.037 27.1507 73.4677 27.552C72.9077 27.944 72.1843 28.14 71.2977 28.14ZM78.9291 28.14C77.8837 28.14 77.0531 27.93 76.4371 27.51C75.8211 27.09 75.4851 26.5113 75.4291 25.774H77.3051C77.3517 26.0913 77.5104 26.334 77.7811 26.502C78.0611 26.6607 78.4437 26.74 78.9291 26.74C79.3677 26.74 79.6851 26.6793 79.8811 26.558C80.0864 26.4273 80.1891 26.2453 80.1891 26.012C80.1891 25.8347 80.1284 25.6993 80.0071 25.606C79.8951 25.5033 79.6851 25.4193 79.3771 25.354L78.2291 25.116C77.3797 24.9387 76.7544 24.6727 76.3531 24.318C75.9517 23.954 75.7511 23.4873 75.7511 22.918C75.7511 22.2273 76.0171 21.6907 76.5491 21.308C77.0811 20.916 77.8231 20.72 78.7751 20.72C79.7177 20.72 80.4691 20.9113 81.0291 21.294C81.5891 21.6673 81.8971 22.19 81.9531 22.862H80.0771C80.0397 22.6193 79.9091 22.4373 79.6851 22.316C79.4611 22.1853 79.1437 22.12 78.7331 22.12C78.3597 22.12 78.0797 22.176 77.8931 22.288C77.7157 22.3907 77.6271 22.54 77.6271 22.736C77.6271 22.904 77.7017 23.0393 77.8511 23.142C78.0004 23.2353 78.2477 23.3193 78.5931 23.394L79.8811 23.66C80.5997 23.8093 81.1411 24.0893 81.5051 24.5C81.8784 24.9013 82.0651 25.3773 82.0651 25.928C82.0651 26.628 81.7897 27.174 81.2391 27.566C80.6977 27.9487 79.9277 28.14 78.9291 28.14Z" fill="white"/>
          </svg>
