    <svg class="hidden" aria-hidden="true" focusable="false" width="87" height="25" viewBox="0 0 87 25" fill="none" xmlns="http://www.w3.org/2000/svg">
    <path d="M0.639844 9.10712V1.18712H4.40184C4.98851 1.18712 5.49084 1.28978 5.90884 1.49512C6.33418 1.70045 6.66051 1.98645 6.88784 2.35312C7.12251 2.71978 7.23984 3.14878 7.23984 3.64012C7.23984 4.13145 7.12251 4.56412 6.88784 4.93812C6.65318 5.31212 6.32318 5.60545 5.89784 5.81812C5.47984 6.02345 4.98118 6.12612 4.40184 6.12612H1.98184V4.82812H4.31384C4.70251 4.82812 5.00318 4.72178 5.21584 4.50912C5.43584 4.28912 5.54584 4.00312 5.54584 3.65112C5.54584 3.29912 5.43584 3.01678 5.21584 2.80412C5.00318 2.59145 4.70251 2.48512 4.31384 2.48512H2.33384V9.10712H0.639844ZM8.14047 9.10712V3.49712H9.75747V4.81712H9.79047V9.10712H8.14047ZM9.79047 6.18112L9.64747 4.85012C9.77947 4.37345 9.9958 4.01045 10.2965 3.76112C10.5971 3.51178 10.9711 3.38712 11.4185 3.38712C11.5578 3.38712 11.6605 3.40178 11.7265 3.43112V4.97112C11.6898 4.95645 11.6385 4.94912 11.5725 4.94912C11.5065 4.94178 11.4258 4.93812 11.3305 4.93812C10.8025 4.93812 10.4138 5.03345 10.1645 5.22412C9.91514 5.40745 9.79047 5.72645 9.79047 6.18112ZM15.0773 9.21712C14.454 9.21712 13.9113 9.09612 13.4493 8.85412C12.9873 8.60478 12.628 8.26012 12.3713 7.82012C12.122 7.38012 11.9973 6.87412 11.9973 6.30212C11.9973 5.72278 12.122 5.21678 12.3713 4.78412C12.628 4.34412 12.9837 4.00312 13.4383 3.76112C13.893 3.51178 14.421 3.38712 15.0223 3.38712C15.6017 3.38712 16.104 3.50445 16.5293 3.73912C16.9547 3.97378 17.2847 4.30012 17.5193 4.71812C17.754 5.13612 17.8713 5.62745 17.8713 6.19212C17.8713 6.30945 17.8677 6.41945 17.8603 6.52212C17.853 6.61745 17.842 6.70912 17.8273 6.79712H12.9653V5.70812H16.4963L16.2103 5.90612C16.2103 5.45145 16.1003 5.11778 15.8803 4.90512C15.6677 4.68512 15.3743 4.57512 15.0003 4.57512C14.5677 4.57512 14.2303 4.72178 13.9883 5.01512C13.7537 5.30845 13.6363 5.74845 13.6363 6.33512C13.6363 6.90712 13.7537 7.33245 13.9883 7.61112C14.2303 7.88978 14.5897 8.02912 15.0663 8.02912C15.3303 8.02912 15.5577 7.98512 15.7483 7.89712C15.939 7.80912 16.082 7.66612 16.1773 7.46812H17.7283C17.545 8.01078 17.2297 8.43978 16.7823 8.75512C16.3423 9.06312 15.774 9.21712 15.0773 9.21712ZM20.1216 9.10712L17.9106 3.49712H19.6816L21.4086 8.73312H20.4846L22.2006 3.49712H23.9276L21.7166 9.10712H20.1216ZM27.0334 9.21712C26.4101 9.21712 25.8674 9.09612 25.4054 8.85412C24.9434 8.60478 24.5841 8.26012 24.3274 7.82012C24.0781 7.38012 23.9534 6.87412 23.9534 6.30212C23.9534 5.72278 24.0781 5.21678 24.3274 4.78412C24.5841 4.34412 24.9397 4.00312 25.3944 3.76112C25.8491 3.51178 26.3771 3.38712 26.9784 3.38712C27.5577 3.38712 28.0601 3.50445 28.4854 3.73912C28.9107 3.97378 29.2407 4.30012 29.4754 4.71812C29.7101 5.13612 29.8274 5.62745 29.8274 6.19212C29.8274 6.30945 29.8237 6.41945 29.8164 6.52212C29.8091 6.61745 29.7981 6.70912 29.7834 6.79712H24.9214V5.70812H28.4524L28.1664 5.90612C28.1664 5.45145 28.0564 5.11778 27.8364 4.90512C27.6237 4.68512 27.3304 4.57512 26.9564 4.57512C26.5237 4.57512 26.1864 4.72178 25.9444 5.01512C25.7097 5.30845 25.5924 5.74845 25.5924 6.33512C25.5924 6.90712 25.7097 7.33245 25.9444 7.61112C26.1864 7.88978 26.5457 8.02912 27.0224 8.02912C27.2864 8.02912 27.5137 7.98512 27.7044 7.89712C27.8951 7.80912 28.0381 7.66612 28.1334 7.46812H29.6844C29.5011 8.01078 29.1857 8.43978 28.7384 8.75512C28.2984 9.06312 27.7301 9.21712 27.0334 9.21712ZM30.7098 9.10712V3.49712H32.3268V4.81712H32.3598V9.10712H30.7098ZM34.6148 9.10712V5.63112C34.6148 5.32312 34.5341 5.09212 34.3728 4.93812C34.2188 4.78412 33.9915 4.70712 33.6908 4.70712C33.4341 4.70712 33.2031 4.76578 32.9978 4.88312C32.7998 5.00045 32.6421 5.16178 32.5248 5.36712C32.4148 5.57245 32.3598 5.81445 32.3598 6.09312L32.2168 4.74012C32.4001 4.32945 32.6678 4.00312 33.0198 3.76112C33.3791 3.51178 33.8191 3.38712 34.3398 3.38712C34.9631 3.38712 35.4398 3.56312 35.7698 3.91512C36.0998 4.25978 36.2648 4.72545 36.2648 5.31212V9.10712H34.6148ZM39.946 9.22812C39.2274 9.22812 38.692 9.05578 38.34 8.71112C37.9954 8.35912 37.823 7.82745 37.823 7.11612V2.24312L39.473 1.62712V7.17112C39.473 7.42045 39.5427 7.60745 39.682 7.73212C39.8214 7.85678 40.0377 7.91912 40.331 7.91912C40.441 7.91912 40.5437 7.90812 40.639 7.88612C40.7344 7.86412 40.8297 7.83845 40.925 7.80912V9.06312C40.8297 9.11445 40.694 9.15478 40.518 9.18412C40.3494 9.21345 40.1587 9.22812 39.946 9.22812ZM36.778 4.75112V3.49712H40.925V4.75112H36.778ZM41.8602 9.10712V3.49712H43.5102V9.10712H41.8602ZM41.8052 2.74912V0.967117H43.5652V2.74912H41.8052ZM44.825 9.10712V3.49712H46.442V4.81712H46.475V9.10712H44.825ZM48.73 9.10712V5.63112C48.73 5.32312 48.6494 5.09212 48.488 4.93812C48.334 4.78412 48.1067 4.70712 47.806 4.70712C47.5494 4.70712 47.3184 4.76578 47.113 4.88312C46.915 5.00045 46.7574 5.16178 46.64 5.36712C46.53 5.57245 46.475 5.81445 46.475 6.09312L46.332 4.74012C46.5154 4.32945 46.783 4.00312 47.135 3.76112C47.4944 3.51178 47.9344 3.38712 48.455 3.38712C49.0784 3.38712 49.555 3.56312 49.885 3.91512C50.215 4.25978 50.38 4.72545 50.38 5.31212V9.10712H48.73ZM54.1991 11.4721C53.4218 11.4721 52.7874 11.3071 52.2961 10.9771C51.8121 10.6471 51.5261 10.1998 51.4381 9.63512H53.0001C53.0588 9.77445 53.1834 9.88078 53.3741 9.95412C53.5721 10.0275 53.8214 10.0641 54.1221 10.0641C54.6208 10.0641 54.9838 9.96878 55.2111 9.77812C55.4384 9.58745 55.5521 9.29045 55.5521 8.88712V7.66612L55.6401 7.68812C55.5668 8.09878 55.3541 8.42512 55.0021 8.66712C54.6501 8.90178 54.2138 9.01912 53.6931 9.01912C53.1944 9.01912 52.7581 8.90545 52.3841 8.67812C52.0174 8.44345 51.7314 8.11712 51.5261 7.69912C51.3208 7.28112 51.2181 6.78978 51.2181 6.22512C51.2181 5.65312 51.3244 5.15445 51.5371 4.72912C51.7498 4.30378 52.0468 3.97378 52.4281 3.73912C52.8168 3.50445 53.2678 3.38712 53.7811 3.38712C54.3091 3.38712 54.7381 3.51178 55.0681 3.76112C55.4054 4.01045 55.6034 4.35145 55.6621 4.78412L55.5851 4.79512V3.49712H57.2021V8.86512C57.2021 9.67178 56.9344 10.3061 56.3991 10.7681C55.8638 11.2375 55.1304 11.4721 54.1991 11.4721ZM54.2651 7.75412C54.6538 7.75412 54.9691 7.62212 55.2111 7.35812C55.4531 7.08678 55.5741 6.70178 55.5741 6.20312C55.5741 5.70445 55.4494 5.32312 55.2001 5.05912C54.9581 4.78778 54.6391 4.65212 54.2431 4.65212C53.8618 4.65212 53.5464 4.78778 53.2971 5.05912C53.0551 5.33045 52.9341 5.71545 52.9341 6.21412C52.9341 6.71278 53.0551 7.09412 53.2971 7.35812C53.5464 7.62212 53.8691 7.75412 54.2651 7.75412ZM60.5061 9.10712V1.18712H62.2001V9.10712H60.5061ZM61.2981 6.03812V4.74012H65.8411V6.03812H61.2981ZM61.2981 2.48512V1.18712H66.0941V2.48512H61.2981ZM70.1627 9.10712C70.1187 8.94578 70.0857 8.77345 70.0637 8.59012C70.049 8.40678 70.0417 8.19412 70.0417 7.95212H69.9977V5.30112C69.9977 5.07378 69.9207 4.89778 69.7667 4.77312C69.62 4.64112 69.4 4.57512 69.1067 4.57512C68.828 4.57512 68.6043 4.62278 68.4357 4.71812C68.2743 4.81345 68.168 4.95278 68.1167 5.13612H66.5437C66.617 4.63012 66.8773 4.21212 67.3247 3.88212C67.772 3.55212 68.3843 3.38712 69.1617 3.38712C69.9683 3.38712 70.5843 3.56678 71.0097 3.92612C71.435 4.28545 71.6477 4.80245 71.6477 5.47712V7.95212C71.6477 8.13545 71.6587 8.32245 71.6807 8.51312C71.71 8.69645 71.754 8.89445 71.8127 9.10712H70.1627ZM68.2047 9.21712C67.6473 9.21712 67.2037 9.07778 66.8737 8.79912C66.5437 8.51312 66.3787 8.13545 66.3787 7.66612C66.3787 7.14545 66.573 6.72745 66.9617 6.41212C67.3577 6.08945 67.9077 5.88045 68.6117 5.78512L70.2507 5.55412V6.51112L68.8867 6.72012C68.5933 6.76412 68.377 6.84478 68.2377 6.96212C68.0983 7.07945 68.0287 7.24078 68.0287 7.44612C68.0287 7.62945 68.0947 7.76878 68.2267 7.86412C68.3587 7.95945 68.5347 8.00712 68.7547 8.00712C69.0993 8.00712 69.3927 7.91545 69.6347 7.73212C69.8767 7.54145 69.9977 7.32145 69.9977 7.07212L70.1517 7.95212C69.9903 8.37012 69.7447 8.68545 69.4147 8.89812C69.0847 9.11078 68.6813 9.21712 68.2047 9.21712ZM72.9159 9.10712V1.18712H74.5659V9.10712H72.9159ZM75.8807 9.10712V1.18712H77.5307V9.10712H75.8807ZM81.1115 9.21712C80.2902 9.21712 79.6375 9.05212 79.1535 8.72212C78.6695 8.39212 78.4055 7.93745 78.3615 7.35812H79.8355C79.8722 7.60745 79.9969 7.79812 80.2095 7.93012C80.4295 8.05478 80.7302 8.11712 81.1115 8.11712C81.4562 8.11712 81.7055 8.06945 81.8595 7.97412C82.0209 7.87145 82.1015 7.72845 82.1015 7.54512C82.1015 7.40578 82.0539 7.29945 81.9585 7.22612C81.8705 7.14545 81.7055 7.07945 81.4635 7.02812L80.5615 6.84112C79.8942 6.70178 79.4029 6.49278 79.0875 6.21412C78.7722 5.92812 78.6145 5.56145 78.6145 5.11412C78.6145 4.57145 78.8235 4.14978 79.2415 3.84912C79.6595 3.54112 80.2425 3.38712 80.9905 3.38712C81.7312 3.38712 82.3215 3.53745 82.7615 3.83812C83.2015 4.13145 83.4435 4.54212 83.4875 5.07012H82.0135C81.9842 4.87945 81.8815 4.73645 81.7055 4.64112C81.5295 4.53845 81.2802 4.48712 80.9575 4.48712C80.6642 4.48712 80.4442 4.53112 80.2975 4.61912C80.1582 4.69978 80.0885 4.81712 80.0885 4.97112C80.0885 5.10312 80.1472 5.20945 80.2645 5.29012C80.3819 5.36345 80.5762 5.42945 80.8475 5.48812L81.8595 5.69712C82.4242 5.81445 82.8495 6.03445 83.1355 6.35712C83.4289 6.67245 83.5755 7.04645 83.5755 7.47912C83.5755 8.02912 83.3592 8.45812 82.9265 8.76612C82.5012 9.06678 81.8962 9.21712 81.1115 9.21712ZM84.2494 10.9551V10.1521C84.594 10.0495 84.8177 9.89912 84.9204 9.70112C85.023 9.50312 85.0744 9.24645 85.0744 8.93112L85.7454 9.10712H84.2274V7.29212H86.0424V8.57912C86.0424 9.15845 85.9067 9.65712 85.6354 10.0751C85.364 10.4931 84.902 10.7865 84.2494 10.9551ZM3.89584 22.2061C2.86918 22.2061 2.04784 21.9788 1.43184 21.5241C0.815844 21.0621 0.45651 20.4131 0.353844 19.5771H1.98184C2.03318 20.0024 2.23851 20.3398 2.59784 20.5891C2.95718 20.8311 3.41551 20.9521 3.97284 20.9521C4.42751 20.9521 4.77584 20.8714 5.01784 20.7101C5.26718 20.5488 5.39184 20.3324 5.39184 20.0611C5.39184 19.8044 5.31851 19.5991 5.17184 19.4451C5.02518 19.2838 4.77218 19.1555 4.41284 19.0601L2.93884 18.6531C2.18351 18.4404 1.62984 18.1508 1.27784 17.7841C0.933177 17.4101 0.760844 16.9444 0.760844 16.3871C0.760844 15.9104 0.881844 15.4998 1.12384 15.1551C1.37318 14.8031 1.72151 14.5354 2.16884 14.3521C2.61618 14.1614 3.14051 14.0661 3.74184 14.0661C4.66584 14.0661 5.40284 14.2861 5.95284 14.7261C6.50284 15.1588 6.81451 15.7344 6.88784 16.4531H5.25984C5.18651 16.0644 5.00684 15.7784 4.72084 15.5951C4.44218 15.4118 4.08284 15.3201 3.64284 15.3201C3.26151 15.3201 2.95718 15.3934 2.72984 15.5401C2.50251 15.6868 2.38884 15.8848 2.38884 16.1341C2.38884 16.3248 2.45118 16.5008 2.57584 16.6621C2.70051 16.8161 2.96084 16.9481 3.35684 17.0581L4.83084 17.4651C5.60818 17.6778 6.16551 17.9711 6.50284 18.3451C6.84751 18.7118 7.01984 19.1774 7.01984 19.7421C7.01984 20.5341 6.74484 21.1428 6.19484 21.5681C5.64484 21.9935 4.87851 22.2061 3.89584 22.2061ZM11.4566 22.1071C11.4126 21.9458 11.3796 21.7735 11.3576 21.5901C11.343 21.4068 11.3356 21.1941 11.3356 20.9521H11.2916V18.3011C11.2916 18.0738 11.2146 17.8978 11.0606 17.7731C10.914 17.6411 10.694 17.5751 10.4006 17.5751C10.122 17.5751 9.89829 17.6228 9.72963 17.7181C9.56829 17.8134 9.46196 17.9528 9.41063 18.1361H7.83763C7.91096 17.6301 8.17129 17.2121 8.61863 16.8821C9.06596 16.5521 9.67829 16.3871 10.4556 16.3871C11.2623 16.3871 11.8783 16.5668 12.3036 16.9261C12.729 17.2854 12.9416 17.8024 12.9416 18.4771V20.9521C12.9416 21.1354 12.9526 21.3224 12.9746 21.5131C13.004 21.6965 13.048 21.8945 13.1066 22.1071H11.4566ZM9.49863 22.2171C8.94129 22.2171 8.49763 22.0778 8.16763 21.7991C7.83763 21.5131 7.67263 21.1354 7.67263 20.6661C7.67263 20.1454 7.86696 19.7274 8.25563 19.4121C8.65163 19.0894 9.20163 18.8804 9.90563 18.7851L11.5446 18.5541V19.5111L10.1806 19.7201C9.88729 19.7641 9.67096 19.8448 9.53163 19.9621C9.39229 20.0794 9.32263 20.2408 9.32263 20.4461C9.32263 20.6294 9.38863 20.7688 9.52063 20.8641C9.65263 20.9595 9.82863 21.0071 10.0486 21.0071C10.3933 21.0071 10.6866 20.9155 10.9286 20.7321C11.1706 20.5414 11.2916 20.3214 11.2916 20.0721L11.4456 20.9521C11.2843 21.3701 11.0386 21.6855 10.7086 21.8981C10.3786 22.1108 9.97529 22.2171 9.49863 22.2171ZM15.3736 22.1071L13.1626 16.4971H14.9336L16.6606 21.7331H15.7366L17.4526 16.4971H19.1796L16.9686 22.1071H15.3736ZM19.7205 22.1071V16.4971H21.3705V22.1071H19.7205ZM19.6655 15.7491V13.9671H21.4255V15.7491H19.6655ZM22.6854 22.1071V16.4971H24.3024V17.8171H24.3354V22.1071H22.6854ZM26.5904 22.1071V18.6311C26.5904 18.3231 26.5097 18.0921 26.3484 17.9381C26.1944 17.7841 25.9671 17.7071 25.6664 17.7071C25.4097 17.7071 25.1787 17.7658 24.9734 17.8831C24.7754 18.0004 24.6177 18.1618 24.5004 18.3671C24.3904 18.5724 24.3354 18.8144 24.3354 19.0931L24.1924 17.7401C24.3757 17.3294 24.6434 17.0031 24.9954 16.7611C25.3547 16.5118 25.7947 16.3871 26.3154 16.3871C26.9387 16.3871 27.4154 16.5631 27.7454 16.9151C28.0754 17.2598 28.2404 17.7254 28.2404 18.3121V22.1071H26.5904ZM32.0595 24.4721C31.2821 24.4721 30.6478 24.3071 30.1565 23.9771C29.6725 23.6471 29.3865 23.1998 29.2985 22.6351H30.8605C30.9191 22.7745 31.0438 22.8808 31.2345 22.9541C31.4325 23.0275 31.6818 23.0641 31.9825 23.0641C32.4811 23.0641 32.8441 22.9688 33.0715 22.7781C33.2988 22.5875 33.4125 22.2905 33.4125 21.8871V20.6661L33.5005 20.6881C33.4271 21.0988 33.2145 21.4251 32.8625 21.6671C32.5105 21.9018 32.0741 22.0191 31.5535 22.0191C31.0548 22.0191 30.6185 21.9055 30.2445 21.6781C29.8778 21.4435 29.5918 21.1171 29.3865 20.6991C29.1811 20.2811 29.0785 19.7898 29.0785 19.2251C29.0785 18.6531 29.1848 18.1544 29.3975 17.7291C29.6101 17.3038 29.9071 16.9738 30.2885 16.7391C30.6771 16.5044 31.1281 16.3871 31.6415 16.3871C32.1695 16.3871 32.5985 16.5118 32.9285 16.7611C33.2658 17.0104 33.4638 17.3514 33.5225 17.7841L33.4455 17.7951V16.4971H35.0625V21.8651C35.0625 22.6718 34.7948 23.3061 34.2595 23.7681C33.7241 24.2375 32.9908 24.4721 32.0595 24.4721ZM32.1255 20.7541C32.5141 20.7541 32.8295 20.6221 33.0715 20.3581C33.3135 20.0868 33.4345 19.7018 33.4345 19.2031C33.4345 18.7044 33.3098 18.3231 33.0605 18.0591C32.8185 17.7878 32.4995 17.6521 32.1035 17.6521C31.7221 17.6521 31.4068 17.7878 31.1575 18.0591C30.9155 18.3304 30.7945 18.7154 30.7945 19.2141C30.7945 19.7128 30.9155 20.0941 31.1575 20.3581C31.4068 20.6221 31.7295 20.7541 32.1255 20.7541ZM38.3664 22.1071V14.1871H40.0604V22.1071H38.3664ZM39.1584 22.1071V20.8091H43.8664V22.1071H39.1584ZM44.6746 22.1071V16.4971H46.3246V22.1071H44.6746ZM44.6196 15.7491V13.9671H46.3796V15.7491H44.6196ZM49.0718 22.1071L46.8608 16.4971H48.6318L50.3588 21.7331H49.4348L51.1508 16.4971H52.8778L50.6668 22.1071H49.0718ZM55.9836 22.2171C55.3603 22.2171 54.8176 22.0961 54.3556 21.8541C53.8936 21.6048 53.5343 21.2601 53.2776 20.8201C53.0283 20.3801 52.9036 19.8741 52.9036 19.3021C52.9036 18.7228 53.0283 18.2168 53.2776 17.7841C53.5343 17.3441 53.8899 17.0031 54.3446 16.7611C54.7993 16.5118 55.3273 16.3871 55.9286 16.3871C56.5079 16.3871 57.0103 16.5044 57.4356 16.7391C57.8609 16.9738 58.1909 17.3001 58.4256 17.7181C58.6603 18.1361 58.7776 18.6274 58.7776 19.1921C58.7776 19.3094 58.7739 19.4194 58.7666 19.5221C58.7593 19.6174 58.7483 19.7091 58.7336 19.7971H53.8716V18.7081H57.4026L57.1166 18.9061C57.1166 18.4514 57.0066 18.1178 56.7866 17.9051C56.5739 17.6851 56.2806 17.5751 55.9066 17.5751C55.4739 17.5751 55.1366 17.7218 54.8946 18.0151C54.6599 18.3084 54.5426 18.7484 54.5426 19.3351C54.5426 19.9071 54.6599 20.3324 54.8946 20.6111C55.1366 20.8898 55.4959 21.0291 55.9726 21.0291C56.2366 21.0291 56.4639 20.9851 56.6546 20.8971C56.8453 20.8091 56.9883 20.6661 57.0836 20.4681H58.6346C58.4513 21.0108 58.1359 21.4398 57.6886 21.7551C57.2486 22.0631 56.6803 22.2171 55.9836 22.2171ZM61.9797 22.2171C61.1584 22.2171 60.5057 22.0521 60.0217 21.7221C59.5377 21.3921 59.2737 20.9374 59.2297 20.3581H60.7037C60.7404 20.6074 60.865 20.7981 61.0777 20.9301C61.2977 21.0548 61.5984 21.1171 61.9797 21.1171C62.3244 21.1171 62.5737 21.0694 62.7277 20.9741C62.889 20.8714 62.9697 20.7284 62.9697 20.5451C62.9697 20.4058 62.922 20.2994 62.8267 20.2261C62.7387 20.1454 62.5737 20.0794 62.3317 20.0281L61.4297 19.8411C60.7624 19.7018 60.271 19.4928 59.9557 19.2141C59.6404 18.9281 59.4827 18.5614 59.4827 18.1141C59.4827 17.5714 59.6917 17.1498 60.1097 16.8491C60.5277 16.5411 61.1107 16.3871 61.8587 16.3871C62.5994 16.3871 63.1897 16.5374 63.6297 16.8381C64.0697 17.1314 64.3117 17.5421 64.3557 18.0701H62.8817C62.8524 17.8794 62.7497 17.7364 62.5737 17.6411C62.3977 17.5384 62.1484 17.4871 61.8257 17.4871C61.5324 17.4871 61.3124 17.5311 61.1657 17.6191C61.0264 17.6998 60.9567 17.8171 60.9567 17.9711C60.9567 18.1031 61.0154 18.2094 61.1327 18.2901C61.25 18.3634 61.4444 18.4294 61.7157 18.4881L62.7277 18.6971C63.2924 18.8145 63.7177 19.0345 64.0037 19.3571C64.297 19.6724 64.4437 20.0464 64.4437 20.4791C64.4437 21.0291 64.2274 21.4581 63.7947 21.7661C63.3694 22.0668 62.7644 22.2171 61.9797 22.2171Z" fill="white"/>
    </svg>
